<svg width="216" height="115" viewBox="0 0 216 115" fill="none" xmlns="http://www.w3.org/2000/svg">
<g clip-path="url(#clip0_2_39)">
<path d="M89 42.1H128.4V68.4H89V42.1Z" fill="#00008B"/>
<path d="M99.4 57.2L100 59L101.7 58.3L100.7 59.8L102.3 60.7L100.5 60.9L100.8 62.7L99.5 61.4L98.2 62.7L98.5 60.9L96.7 60.7L98.3 59.8L97.3 58.3L99 59L99.4 57.2Z" fill="white"/>
<path d="M118.9 60.4L119.2 61.2L120 60.9L119.5 61.6L120.3 62L119.4 62.1L119.5 63L118.9 62.4L118.3 63L118.4 62.1L117.5 62L118.3 61.6L117.8 60.9L118.6 61.2L118.9 60.4Z" fill="white"/>
<path d="M114.1 52.6L114.4 53.4L115.2 53.1L114.7 53.8L115.5 54.2L114.6 54.3L114.7 55.2L114.1 54.6L113.5 55.2L113.6 54.3L112.7 54.2L113.5 53.8L113 53.1L113.8 53.4L114.1 52.6Z" fill="white"/>
<path d="M118.9 47.4L119.2 48.2L120 47.9L119.5 48.6L120.3 49.1L119.4 49.2L119.5 50.1L118.9 49.5L118.3 50.1L118.4 49.2L117.5 49.1L118.3 48.6L117.8 47.9L118.6 48.2L118.9 47.4Z" fill="white"/>
<path d="M123.3 51.3L123.6 52.1L124.4 51.8L123.9 52.5L124.7 52.9L123.8 53L123.9 53.9L123.3 53.3L122.7 53.9L122.8 53L121.9 52.9L122.7 52.5L122.2 51.8L123 52.1L123.3 51.3Z" fill="white"/>
<path d="M120.9 55.2L121.1 55.7H121.7L121.3 56.1L121.4 56.6L120.9 56.3L120.4 56.6L120.5 56.1L120.1 55.7H120.7L120.9 55.2Z" fill="white"/>
<path d="M89 50.9V53.9L93.5 50.9H89Z" fill="#00008B"/>
<path d="M106.6 42.1H101V45.8L106.6 42.1Z" fill="#00008B"/>
<path d="M91.1 55.3H96.7V51.6L91.1 55.3Z" fill="#00008B"/>
<path d="M89 43.5V46.5H93.5L89 43.5Z" fill="#00008B"/>
<path d="M96.7 42.1H91.1L96.7 45.8V42.1Z" fill="#00008B"/>
<path d="M108.7 53.9V50.9H104.2L108.7 53.9Z" fill="#00008B"/>
<path d="M108.7 46.5V43.5L104.2 46.5H108.7Z" fill="#00008B"/>
<path d="M101 55.3H106.6L101 51.6V55.3Z" fill="#00008B"/>
<path d="M96.7 46.5V45.9L91.1 42.2H89L95.6 46.6H96.7V46.5Z" fill="white"/>
<path d="M94.2 46.5L89 43V43.5L93.5 46.5H94.2Z" fill="white"/>
<path d="M101 50.9V51.5L106.6 55.2H108.7L102.1 50.8H101V50.9Z" fill="white"/>
<path d="M96.7 51.1L90.4 55.3H91.1L96.7 51.6V51.1Z" fill="white"/>
<path d="M93.5 50.9L89 53.9V55.3L95.6 50.9H93.5Z" fill="white"/>
<path d="M103.5 50.9L108.7 54.4V54L104.2 51H103.5V50.9Z" fill="white"/>
<path d="M104.2 46.5L108.7 43.5V42.1L102.1 46.5H104.2Z" fill="white"/>
<path d="M101 46.3L107.3 42.1H106.6L101 45.8V46.3Z" fill="white"/>
<path d="M95.6 46.5L89 42.1V43L94.2 46.5H95.6Z" fill="#CF142B"/>
<path d="M103.5 50.9H102.1L108.7 55.3V54.4L103.5 50.9Z" fill="#CF142B"/>
<path d="M96.7 50.9H95.6L89 55.3H90.4L96.7 51.1V50.9Z" fill="#CF142B"/>
<path d="M101 46.5H102.1L108.7 42.1H107.3L101 46.3V46.5Z" fill="#CF142B"/>
<path d="M100.2 47.4H108.7V46.5H104.2H102.1H101V46.3V45.8V42.1H100.1V47.4H100.2Z" fill="white"/>
<path d="M101 50.9H102.1H103.5H104.2H108.7V50H100.2V55.3H101.1V51.6V50.9H101Z" fill="white"/>
<path d="M97.5 50H89V50.9H93.5H95.5H96.6V51.1V51.6V55.3H97.5V50Z" fill="white"/>
<path d="M97.5 47.4V42.1H96.6V45.8V46.4H95.5H94.1H93.4H89V47.3H97.5V47.4Z" fill="white"/>
<path d="M100.2 50H108.7V48.7V47.4H100.2V42.1H98.9H97.6V47.4H89V48.7V50H97.5V55.3H98.8H100.1V50H100.2Z" fill="#CF142B"/>
<path d="M102.3 72.8L102 73.6H101.6L102.5 70.9H102.9L103.8 73.6H103.4L103.1 72.8H102.3ZM103.2 72.5L102.9 71.7C102.8 71.5 102.8 71.4 102.8 71.2C102.8 71.4 102.7 71.5 102.7 71.7L102.4 72.5H103.2Z" fill="#F4F0C3"/>
<path d="M105.8 73.1C105.8 73.3 105.8 73.5 105.8 73.6H105.5V73.3C105.4 73.4 105.3 73.5 105.2 73.6C105.1 73.7 105 73.7 104.8 73.7C104.5 73.7 104.1 73.5 104.1 72.9V71.7H104.4V72.8C104.4 73.2 104.5 73.4 104.8 73.4C104.9 73.4 105 73.4 105.1 73.3C105.2 73.2 105.2 73.2 105.3 73.1C105.3 73 105.3 73 105.3 72.9V71.7H105.6L105.8 73.1Z" fill="#F4F0C3"/>
<path d="M106.4 73.3C106.5 73.4 106.7 73.4 106.9 73.4C107.2 73.4 107.3 73.3 107.3 73.1C107.3 72.9 107.2 72.8 106.9 72.8C106.6 72.7 106.4 72.5 106.4 72.3C106.4 72.2 106.4 72.1 106.5 72.1C106.5 72 106.6 72 106.6 71.9C106.7 71.8 106.7 71.8 106.8 71.8C106.9 71.8 107 71.8 107 71.8C107.2 71.8 107.3 71.8 107.5 71.9L107.4 72.2C107.3 72.1 107.1 72.1 107 72.1C106.8 72.1 106.7 72.2 106.7 72.4C106.7 72.5 106.8 72.6 107.1 72.7C107.4 72.8 107.6 73 107.6 73.3C107.6 73.6 107.3 73.9 106.9 73.9C106.7 73.9 106.5 73.9 106.4 73.8V73.3Z" fill="#F4F0C3"/>
<path d="M108.4 71.2V71.7H108.9V72H108.4V73C108.4 73.2 108.5 73.4 108.7 73.4H108.9V73.7C108.8 73.7 108.7 73.7 108.6 73.7C108.5 73.7 108.5 73.7 108.4 73.7C108.3 73.7 108.3 73.6 108.2 73.6C108.1 73.5 108 73.3 108.1 73.1V72.1H107.8V71.8H108.1V71.4L108.4 71.2Z" fill="#F4F0C3"/>
<path d="M109.3 72.3C109.3 72.1 109.3 71.9 109.3 71.7H109.6V72.1C109.6 72 109.7 71.9 109.8 71.8C109.9 71.7 110 71.7 110.1 71.7H110.2V72H110.1C110 72 109.9 72 109.8 72.1C109.7 72.2 109.7 72.3 109.6 72.4C109.6 72.5 109.6 72.5 109.6 72.6V73.6H109.3V72.3Z" fill="#F4F0C3"/>
<path d="M111.6 73.7V73.5C111.5 73.6 111.4 73.7 111.3 73.7C111.2 73.7 111.1 73.8 111 73.8C110.9 73.8 110.8 73.8 110.8 73.8C110.7 73.8 110.7 73.7 110.6 73.7C110.5 73.6 110.5 73.6 110.5 73.5C110.5 73.4 110.5 73.4 110.5 73.3C110.5 72.8 110.9 72.6 111.7 72.6C111.7 72.5 111.7 72.5 111.7 72.4C111.7 72.3 111.6 72.3 111.6 72.2C111.6 72.2 111.5 72.1 111.4 72.1C111.3 72.1 111.3 72.1 111.2 72.1C111 72.1 110.9 72.2 110.7 72.3L110.6 72.1C110.8 72 111 71.9 111.2 71.9C111.8 71.9 111.9 72.3 111.9 72.7V73.4C111.9 73.6 111.9 73.7 111.9 73.9L111.6 73.7ZM111.6 72.7C111.2 72.7 110.8 72.7 110.8 73.1V73.2C110.8 73.2 110.8 73.3 110.9 73.3L111 73.4H111.1C111.2 73.4 111.3 73.4 111.4 73.3C111.5 73.2 111.5 73.2 111.6 73.1V73V72.7Z" fill="#F4F0C3"/>
<path d="M112.5 70.8H112.8V73.6H112.5V70.8Z" fill="#F4F0C3"/>
<path d="M113.8 71.2C113.8 71.2 113.8 71.3 113.8 71.2C113.8 71.3 113.8 71.3 113.7 71.4C113.7 71.4 113.7 71.4 113.6 71.4H113.5H113.4C113.4 71.4 113.4 71.4 113.3 71.4C113.3 71.4 113.3 71.4 113.3 71.3C113.3 71.2 113.3 71.2 113.3 71.2V71.1V71C113.3 71 113.3 71 113.4 71H113.5H113.6H113.7C113.7 71.1 113.8 71.1 113.8 71.2C113.8 71.1 113.8 71.2 113.8 71.2ZM113.4 73.7V71.7H113.7V73.7H113.4Z" fill="#F4F0C3"/>
<path d="M115.4 73.7V73.5C115.3 73.6 115.2 73.7 115.1 73.7C115 73.7 114.9 73.8 114.8 73.8C114.7 73.8 114.6 73.8 114.6 73.8C114.5 73.8 114.5 73.7 114.4 73.7C114.3 73.6 114.3 73.6 114.3 73.5C114.3 73.4 114.3 73.4 114.3 73.3C114.3 72.8 114.7 72.6 115.5 72.6C115.5 72.5 115.5 72.5 115.5 72.4C115.5 72.3 115.5 72.3 115.4 72.2L115.3 72.1C115.2 72.1 115.2 72.1 115.1 72.1C114.9 72.1 114.7 72.2 114.6 72.3L114.5 72.1C114.7 72 114.9 71.9 115.1 71.9C115.7 71.9 115.8 72.3 115.8 72.7V73.4C115.8 73.6 115.8 73.7 115.8 73.9L115.4 73.7ZM115.3 72.7C114.9 72.7 114.5 72.7 114.5 73.1V73.2C114.5 73.2 114.5 73.3 114.6 73.3L114.7 73.4H114.8C114.9 73.4 115 73.4 115.1 73.3C115.2 73.2 115.2 73.2 115.3 73.1V73V72.7Z" fill="#F4F0C3"/>
<path d="M216 42.1H176.6V68.4H216V42.1Z" fill="#D7141A"/>
<path d="M216 42.1H176.6V55.2H216V42.1Z" fill="white"/>
<path d="M196.3 55.3L176.6 42.2V68.5L196.3 55.3Z" fill="#11457E"/>
<path d="M185.9 73.8C185.7 73.9 185.4 73.9 185.2 73.9C185 73.9 184.8 73.9 184.7 73.8C184.5 73.7 184.4 73.6 184.3 73.5C184.2 73.4 184.1 73.2 184 73.1C183.9 73 183.9 72.8 183.9 72.6C183.9 72.4 183.9 72.2 184 72.1C184.1 71.9 184.2 71.8 184.3 71.6C184.4 71.5 184.6 71.4 184.8 71.3C185 71.2 185.2 71.2 185.3 71.2C185.5 71.2 185.7 71.2 185.9 71.3L185.8 71.6C185.6 71.5 185.5 71.5 185.3 71.5C185.2 71.5 185 71.5 184.9 71.6C184.8 71.7 184.7 71.7 184.6 71.8C184.5 71.9 184.4 72 184.4 72.2C184.4 72.3 184.3 72.5 184.4 72.6C184.4 72.7 184.4 72.9 184.5 73C184.5 73.1 184.6 73.2 184.7 73.3C184.8 73.4 184.9 73.5 185 73.5C185.1 73.6 185.3 73.6 185.4 73.6C185.6 73.6 185.8 73.6 186 73.5L185.9 73.8Z" fill="#F4F0C3"/>
<path d="M186.2 73.7L187.1 72.6C187.2 72.5 187.3 72.4 187.4 72.3H186.4V72H187.8V72.2L186.9 73.3C186.8 73.4 186.7 73.5 186.7 73.6H187.8V73.9H186.2V73.7Z" fill="#F4F0C3"/>
<path d="M188.2 73C188.2 73.1 188.2 73.2 188.2 73.3C188.2 73.4 188.3 73.5 188.3 73.5C188.4 73.6 188.4 73.6 188.5 73.6C188.6 73.6 188.7 73.6 188.8 73.6C189 73.6 189.2 73.6 189.3 73.5L189.4 73.8C189.2 73.9 189 73.9 188.8 73.9C188.7 73.9 188.5 73.9 188.4 73.8C188.3 73.8 188.2 73.7 188.1 73.6C188 73.5 187.9 73.4 187.9 73.3C187.9 73.2 187.8 73 187.9 72.9C187.9 72.8 187.9 72.6 187.9 72.5C187.9 72.4 188 72.3 188.1 72.2C188.2 72.1 188.3 72 188.4 72C188.5 71.9 188.6 71.9 188.8 71.9C188.9 71.9 189 71.9 189.1 72C189.2 72 189.3 72.1 189.4 72.2C189.5 72.3 189.5 72.4 189.6 72.5C189.6 72.6 189.6 72.7 189.6 72.8C189.6 72.9 189.6 72.9 189.6 73H188.2ZM189.2 72.7C189.2 72.6 189.2 72.6 189.2 72.5C189.2 72.4 189.1 72.4 189.1 72.3C189.1 72.2 189 72.2 188.9 72.2C188.8 72.2 188.8 72.2 188.7 72.2C188.6 72.2 188.4 72.3 188.3 72.4C188.2 72.5 188.1 72.6 188.1 72.8H189.2V72.7Z" fill="#F4F0C3"/>
<path d="M191.4 73.8C191.2 73.9 191 73.9 190.8 73.9C190.7 73.9 190.5 73.9 190.4 73.9C190.3 73.9 190.2 73.8 190.1 73.7C190 73.6 189.9 73.5 189.9 73.4C189.9 73.3 189.8 73.1 189.9 73C189.9 72.7 190 72.5 190.2 72.3C190.4 72.1 190.6 72 190.9 72C191.1 72 191.2 72 191.4 72.1L191.3 72.4C191.2 72.3 191 72.3 190.9 72.3C190.8 72.3 190.7 72.3 190.6 72.4C190.5 72.4 190.4 72.5 190.4 72.6C190.3 72.7 190.3 72.7 190.3 72.8C190.3 72.9 190.3 73 190.3 73.1C190.3 73.2 190.3 73.3 190.3 73.4C190.3 73.5 190.4 73.6 190.4 73.6C190.5 73.7 190.5 73.7 190.6 73.8C190.7 73.8 190.8 73.9 190.9 73.9C191 73.9 191.2 73.9 191.3 73.8H191.4Z" fill="#F4F0C3"/>
<path d="M191.8 71.1H192.2V72.3C192.3 72.2 192.3 72.1 192.4 72.1C192.5 72 192.6 72 192.8 72C193.1 72 193.5 72.2 193.5 72.8V73.9H193.2V72.8C193.2 72.5 193.1 72.2 192.8 72.2C192.7 72.2 192.6 72.2 192.5 72.3C192.4 72.4 192.4 72.4 192.3 72.5C192.3 72.6 192.3 72.6 192.3 72.7V73.9H191.9L191.8 71.1Z" fill="#F4F0C3"/>
<path d="M194.8 71.3C195 71.3 195.2 71.3 195.5 71.3C195.8 71.3 196.1 71.3 196.3 71.5C196.4 71.6 196.4 71.6 196.5 71.7C196.5 71.8 196.6 71.9 196.5 72C196.5 72.2 196.5 72.3 196.4 72.4C196.3 72.5 196.2 72.6 196 72.6C196.1 72.6 196.2 72.7 196.3 72.8C196.4 72.9 196.4 73 196.4 73.1C196.5 73.3 196.5 73.6 196.6 73.8H196.3C196.2 73.6 196.2 73.4 196.1 73.2C196 72.8 195.9 72.7 195.6 72.7H195.3V73.9H194.9V71.3H194.8ZM195.2 72.5H195.5C195.9 72.5 196.1 72.3 196.1 72C196.1 71.7 195.8 71.5 195.5 71.5C195.4 71.5 195.3 71.5 195.2 71.5V72.5Z" fill="#F4F0C3"/>
<path d="M197.1 73C197.1 73.1 197.1 73.2 197.1 73.3C197.1 73.4 197.2 73.5 197.2 73.5C197.3 73.6 197.3 73.6 197.4 73.6C197.5 73.6 197.6 73.6 197.7 73.6C197.9 73.6 198.1 73.6 198.2 73.5L198.3 73.8C198.1 73.9 197.9 73.9 197.7 73.9C197.6 73.9 197.4 73.9 197.3 73.8C197.2 73.8 197.1 73.7 197 73.6C196.9 73.5 196.8 73.4 196.8 73.3C196.8 73.2 196.7 73 196.8 72.9C196.8 72.8 196.8 72.6 196.8 72.5C196.8 72.4 196.9 72.3 197 72.2C197.1 72.1 197.2 72 197.3 72C197.4 71.9 197.5 71.9 197.7 71.9C197.8 71.9 197.9 71.9 198 72C198.1 72 198.2 72.1 198.3 72.2C198.4 72.3 198.4 72.4 198.5 72.5C198.5 72.6 198.5 72.7 198.5 72.8C198.5 72.9 198.5 72.9 198.5 73H197.1ZM198.1 72.7C198.1 72.6 198.1 72.6 198.1 72.5C198.1 72.4 198 72.4 198 72.3C198 72.2 197.9 72.2 197.8 72.2C197.7 72.2 197.7 72.2 197.6 72.2C197.5 72.2 197.3 72.3 197.2 72.4C197.1 72.5 197 72.6 197 72.8H198.1V72.7Z" fill="#F4F0C3"/>
<path d="M198.9 72.6C198.9 72.3 198.9 72.1 198.9 72H199.2V72.3C199.3 72.2 199.4 72.1 199.5 72C199.6 71.9 199.8 71.9 199.9 71.9C200 71.9 200.1 71.9 200.2 72C200.3 72.1 200.4 72.1 200.5 72.2C200.6 72.3 200.6 72.4 200.7 72.5C200.7 72.6 200.7 72.7 200.7 72.9C200.7 73 200.7 73.1 200.7 73.3C200.7 73.4 200.6 73.5 200.5 73.6C200.4 73.7 200.3 73.8 200.2 73.8C200.1 73.9 200 73.9 199.8 73.9C199.7 73.9 199.6 73.9 199.5 73.8C199.4 73.7 199.3 73.7 199.2 73.6V74.6H198.8L198.9 72.6ZM199.3 73.1V73.2C199.3 73.3 199.4 73.4 199.5 73.5C199.6 73.6 199.7 73.6 199.8 73.6C200.2 73.6 200.4 73.3 200.4 72.9C200.4 72.5 200.2 72.2 199.8 72.2C199.7 72.2 199.6 72.3 199.5 72.3C199.4 72.4 199.3 72.5 199.3 72.6V72.7V73.1Z" fill="#F4F0C3"/>
<path d="M202.8 73.4C202.8 73.6 202.8 73.7 202.8 73.9H202.5V73.6C202.4 73.7 202.3 73.8 202.2 73.9C202.1 74 202 74 201.8 74C201.5 74 201.1 73.8 201.1 73.2V72H201.4V73C201.4 73.4 201.5 73.6 201.8 73.6C201.9 73.6 202 73.6 202.1 73.5C202.2 73.4 202.2 73.4 202.3 73.3C202.3 73.2 202.3 73.2 202.3 73.1V72H202.6L202.8 73.4Z" fill="#F4F0C3"/>
<path d="M203.3 73.9C203.3 73.8 203.3 73.6 203.3 73.4V71.1H203.6V72.3C203.7 72.2 203.8 72.1 203.9 72C204 71.9 204.1 71.9 204.3 71.9C204.8 71.9 205.1 72.3 205.1 72.9C205.1 73 205.1 73.1 205.1 73.3C205.1 73.5 205 73.5 204.9 73.6C204.8 73.7 204.7 73.8 204.6 73.8C204.5 73.9 204.4 73.9 204.2 73.9C204.1 73.9 203.9 73.9 203.8 73.8C203.7 73.7 203.6 73.6 203.5 73.5V73.8L203.3 73.9ZM203.7 73.1V73.2C203.7 73.3 203.8 73.4 203.9 73.5C204 73.6 204.1 73.6 204.2 73.6C204.6 73.6 204.8 73.3 204.8 72.9C204.8 72.5 204.6 72.2 204.2 72.2C204.1 72.2 204 72.2 203.9 72.3C203.8 72.4 203.7 72.5 203.7 72.6V72.7V73.1Z" fill="#F4F0C3"/>
<path d="M205.6 71.1H205.9V73.9H205.6V71.1Z" fill="#F4F0C3"/>
<path d="M206.9 71.4C206.9 71.5 206.9 71.5 206.9 71.4C206.9 71.5 206.9 71.5 206.8 71.6C206.8 71.6 206.8 71.6 206.7 71.6H206.6C206.5 71.6 206.5 71.6 206.5 71.5L206.4 71.4C206.4 71.3 206.4 71.3 206.5 71.2C206.5 71.2 206.6 71.1 206.7 71.1H206.8C206.8 71.1 206.8 71.1 206.9 71.1C206.8 71.3 206.9 71.3 206.9 71.4ZM206.5 73.9V72H206.8V73.9H206.5Z" fill="#F4F0C3"/>
<path d="M208.8 73.8C208.6 73.9 208.4 73.9 208.2 73.9C208.1 73.9 207.9 73.9 207.8 73.8C207.7 73.8 207.6 73.7 207.5 73.6C207.4 73.5 207.3 73.4 207.3 73.3C207.3 73.2 207.2 73 207.3 72.9C207.3 72.6 207.4 72.4 207.6 72.2C207.8 72 208 71.9 208.3 71.9C208.5 71.9 208.6 71.9 208.8 72L208.7 72.3C208.6 72.2 208.4 72.2 208.3 72.2C208.2 72.2 208.1 72.2 208 72.3C207.9 72.3 207.8 72.4 207.8 72.5C207.7 72.6 207.7 72.6 207.7 72.7C207.7 72.8 207.7 72.9 207.7 73C207.7 73.1 207.7 73.2 207.7 73.3C207.7 73.4 207.8 73.5 207.8 73.5C207.9 73.6 207.9 73.6 208 73.7C208.1 73.7 208.2 73.8 208.3 73.8C208.4 73.8 208.6 73.8 208.7 73.7L208.8 73.8Z" fill="#F4F0C3"/>
<path d="M172 0H132.6V26.3H172V0Z" fill="black"/>
<path d="M172 8.70001H132.6V26.2H172V8.70001Z" fill="#DD0000"/>
<path d="M172 17.5H132.6V26.3H172V17.5Z" fill="#FFCE00"/>
<path d="M147 31.4C146.7 31.5 146.5 31.5 146.2 31.6C146 31.6 145.8 31.6 145.7 31.5C145.5 31.4 145.4 31.3 145.2 31.2C145.1 31.1 145 30.9 144.9 30.7C144.8 30.5 144.8 30.3 144.8 30.2C144.8 30 144.8 29.8 144.9 29.7C145 29.5 145.1 29.4 145.2 29.2C145.3 29.1 145.5 29 145.7 28.9C145.9 28.8 146.1 28.8 146.3 28.8C146.5 28.8 146.8 28.8 147 28.9L146.9 29.2C146.7 29.1 146.5 29.1 146.3 29.1C146.2 29.1 146 29.1 145.9 29.2C145.8 29.2 145.6 29.3 145.5 29.4C145.4 29.5 145.3 29.6 145.3 29.8C145.2 29.9 145.2 30.1 145.2 30.2C145.2 30.3 145.2 30.5 145.3 30.6C145.3 30.7 145.4 30.9 145.5 31C145.6 31.1 145.7 31.2 145.8 31.2C145.9 31.2 146.1 31.3 146.2 31.3C146.4 31.3 146.5 31.3 146.7 31.2V30.4H146.2V30.1H147.1L147 31.4Z" fill="#F4F0C3"/>
<path d="M147.8 30.7C147.8 30.8 147.8 30.9 147.8 31C147.8 31.1 147.9 31.2 147.9 31.2C147.9 31.2 148 31.3 148.1 31.3C148.2 31.3 148.3 31.3 148.4 31.3C148.6 31.3 148.8 31.3 148.9 31.2L149 31.4C148.8 31.5 148.6 31.5 148.4 31.5C148.3 31.5 148.1 31.5 148 31.4C147.9 31.4 147.8 31.3 147.7 31.2C147.6 31.1 147.5 31 147.5 30.9C147.5 30.8 147.4 30.6 147.5 30.5C147.5 30.4 147.5 30.3 147.5 30.1C147.5 30 147.6 29.9 147.7 29.8C147.8 29.7 147.9 29.6 148 29.6C148.1 29.5 148.2 29.5 148.4 29.5C148.5 29.5 148.6 29.5 148.7 29.6C148.8 29.6 148.9 29.7 149 29.8C149.1 29.9 149.1 30 149.2 30.1C149.2 30.2 149.2 30.3 149.2 30.4C149.2 30.5 149.2 30.5 149.2 30.6L147.8 30.7ZM148.8 30.4C148.8 30.3 148.8 30.3 148.8 30.2C148.8 30.1 148.7 30.1 148.7 30C148.7 29.9 148.6 29.9 148.5 29.9C148.4 29.9 148.4 29.9 148.3 29.9C148.2 29.9 148 30 147.9 30.1C147.8 30.2 147.7 30.3 147.7 30.5H148.8V30.4Z" fill="#F4F0C3"/>
<path d="M149.5 30.3C149.5 30.1 149.5 29.9 149.5 29.7H149.8V30C149.8 29.9 149.9 29.8 150 29.7C150.1 29.6 150.2 29.6 150.3 29.6H150.4V29.9H150.3C150.2 29.9 150.1 30 150 30C149.9 30.1 149.9 30.2 149.9 30.3C149.9 30.4 149.9 30.4 149.9 30.5V31.5H149.5V30.3Z" fill="#F4F0C3"/>
<path d="M150.8 30.2C150.8 30 150.8 29.8 150.8 29.7H151.1V30C151.2 29.9 151.2 29.8 151.4 29.7C151.5 29.6 151.6 29.6 151.8 29.6C151.9 29.6 152 29.6 152.1 29.7C152.2 29.8 152.3 29.9 152.3 30C152.4 29.9 152.4 29.8 152.5 29.8C152.6 29.7 152.8 29.7 152.9 29.7C153.2 29.7 153.5 29.9 153.5 30.5V31.6H153.2V30.5C153.2 30.1 153.1 29.9 152.8 29.9C152.7 29.9 152.6 29.9 152.5 30C152.4 30.1 152.4 30.1 152.3 30.2C152.3 30.3 152.3 30.3 152.3 30.4V31.6H152V30.5C152 30.2 151.9 30 151.6 30C151.5 30 151.4 30 151.3 30.1C151.2 30.2 151.2 30.2 151.1 30.3C151.1 30.4 151.1 30.4 151.1 30.5V31.6H150.8V30.2Z" fill="#F4F0C3"/>
<path d="M155.2 31.6V31.4C155.1 31.5 155 31.6 154.9 31.6C154.8 31.7 154.7 31.7 154.6 31.7C154.5 31.7 154.5 31.7 154.4 31.7C154.3 31.7 154.3 31.6 154.2 31.6C154.1 31.5 154.1 31.5 154.1 31.4C154.1 31.3 154.1 31.3 154.1 31.2C154.1 30.7 154.5 30.5 155.2 30.5C155.2 30.4 155.2 30.4 155.2 30.3C155.2 30.2 155.1 30.2 155.1 30.2L155 30.1C154.9 30.1 154.9 30.1 154.8 30.1C154.6 30.1 154.5 30.1 154.3 30.2L154.2 30C154.4 29.9 154.6 29.8 154.8 29.8C155.4 29.8 155.5 30.2 155.5 30.6V31.3C155.5 31.4 155.5 31.6 155.5 31.8L155.2 31.6ZM155.1 30.6C154.7 30.6 154.3 30.7 154.3 31V31.1C154.3 31.1 154.3 31.2 154.4 31.2L154.5 31.3H154.6C154.7 31.3 154.8 31.3 154.9 31.2C155 31.1 155 31.1 155.1 31V30.9V30.6Z" fill="#F4F0C3"/>
<path d="M156 30.2C156 30 156 29.9 156 29.7H156.3V30C156.4 29.9 156.5 29.8 156.6 29.7C156.7 29.6 156.8 29.6 157 29.6C157.3 29.6 157.7 29.8 157.7 30.4V31.5H157.4V30.4C157.4 30.1 157.3 29.8 157 29.8C156.9 29.8 156.8 29.8 156.7 29.9C156.6 30 156.6 30 156.5 30.1C156.5 30.2 156.5 30.2 156.5 30.3V31.4H156V30.2Z" fill="#F4F0C3"/>
<path d="M158.3 29.7L158.7 30.8C158.7 30.9 158.8 31.1 158.8 31.2C158.8 31.1 158.9 30.9 158.9 30.8L159.3 29.7H159.7L159.2 31.1C159.1 31.5 158.9 32 158.5 32.3C158.4 32.4 158.2 32.5 158.1 32.5L158 32.2C158.1 32.2 158.2 32.1 158.3 32C158.4 31.9 158.5 31.8 158.6 31.6V31.5V31.4L157.9 29.6H158.3V29.7Z" fill="#F4F0C3"/>
<path d="M39.4 0H0V26.3H39.4V0Z" fill="#EF2B2D"/>
<path d="M18.1 0H11.5V26.3H18.1V0Z" fill="white"/>
<path d="M39.4 9.79999H0V16.4H39.4V9.79999Z" fill="white"/>
<path d="M16.4 0H13.1V26.3H16.4V0Z" fill="#002868"/>
<path d="M39.4 11.5H0V14.8H39.4V11.5Z" fill="#002868"/>
<path d="M13.5 31.5V28.8H13.9L14.7 30.1C14.9 30.4 15 30.7 15.2 31C15.2 30.6 15.2 30.3 15.2 29.9V28.8H15.5V31.5H15.2L14.3 30.2C14.1 29.9 14 29.6 13.8 29.3C13.8 29.6 13.8 29.9 13.8 30.4V31.5H13.5Z" fill="#F4F0C3"/>
<path d="M17.8 30.5C17.8 30.6 17.8 30.8 17.7 30.9C17.7 31 17.6 31.1 17.5 31.2C17.4 31.3 17.3 31.4 17.2 31.4C17.1 31.5 17 31.5 16.8 31.5C16.7 31.5 16.5 31.5 16.4 31.4C16.3 31.3 16.2 31.3 16.1 31.2C16.1 31.2 16 31 16 30.9C16 30.8 15.9 30.6 16 30.5C16 30.4 16 30.2 16.1 30.1C16.2 30 16.2 29.9 16.3 29.8C16.4 29.7 16.5 29.6 16.6 29.6C16.7 29.6 16.8 29.5 17 29.5C17.1 29.5 17.3 29.5 17.4 29.6C17.5 29.7 17.6 29.7 17.7 29.8C17.8 29.9 17.9 30 17.9 30.1C17.8 30.3 17.8 30.4 17.8 30.5ZM16.3 30.5C16.3 30.9 16.5 31.2 16.9 31.2C17.3 31.2 17.5 30.9 17.5 30.5C17.5 30.1 17.3 29.8 16.9 29.8C16.5 29.8 16.3 30.2 16.3 30.5Z" fill="#F4F0C3"/>
<path d="M18.2 30.2C18.2 30 18.2 29.8 18.2 29.6H18.5V30C18.5 29.9 18.6 29.8 18.7 29.7C18.8 29.6 18.9 29.6 19 29.6H19.1V29.9H19C18.9 29.9 18.8 29.9 18.7 30C18.6 30.1 18.6 30.2 18.5 30.3C18.5 30.4 18.5 30.4 18.5 30.5V31.5H18.2V30.2Z" fill="#F4F0C3"/>
<path d="M19.8 29.6L20.1 30.6C20.1 30.8 20.2 31 20.2 31.2C20.3 31 20.3 30.8 20.4 30.6L20.7 29.6H21L21.3 30.6C21.4 30.8 21.4 31 21.5 31.2C21.5 31 21.6 30.8 21.7 30.6L22 29.6H22.3L21.7 31.5H21.4L21.1 30.6C21 30.4 21 30.2 20.9 30C20.9 30.2 20.8 30.4 20.7 30.6L20.4 31.5H20L19.4 29.6H19.8Z" fill="#F4F0C3"/>
<path d="M23.6 31.5V31.3C23.5 31.4 23.4 31.5 23.3 31.5C23.2 31.5 23.1 31.6 23 31.6C22.9 31.6 22.8 31.6 22.8 31.6C22.7 31.6 22.7 31.5 22.6 31.5C22.5 31.4 22.5 31.4 22.5 31.3C22.5 31.2 22.5 31.2 22.5 31.1C22.5 30.6 22.9 30.4 23.7 30.4C23.7 30.3 23.7 30.3 23.7 30.2C23.7 30.1 23.7 30.1 23.6 30L23.5 29.9C23.4 29.9 23.4 29.9 23.3 29.9C23.1 29.9 22.9 30 22.8 30L22.7 29.7C22.9 29.6 23.1 29.5 23.3 29.5C23.9 29.5 24 29.9 24 30.3V31C24 31.2 24 31.3 24 31.5H23.6ZM23.5 30.5C23.1 30.5 22.7 30.5 22.7 30.9V31C22.7 31 22.7 31.1 22.8 31.1L22.9 31.2H23C23.1 31.2 23.2 31.2 23.3 31.1C23.4 31 23.4 31 23.5 30.9V30.8V30.5Z" fill="#F4F0C3"/>
<path d="M24.5 29.6L24.9 30.7C24.9 30.8 25 31 25 31.1C25 31 25.1 30.8 25.1 30.7L25.4 29.6H25.8L25.4 31C25.3 31.4 25.1 31.8 24.7 32.2C24.6 32.3 24.4 32.4 24.3 32.4L24.2 32.1C24.3 32.1 24.4 32 24.5 31.9C24.6 31.8 24.7 31.7 24.8 31.5V31.4V31.3L24.1 29.5H24.5V29.6Z" fill="#F4F0C3"/>
<path d="M57.7 42.1H44.6V68.4H57.7V42.1Z" fill="#009246"/>
<path d="M70.9 42.1H57.7V68.4H70.8V42.1H70.9Z" fill="white"/>
<path d="M84 42.1H70.9V68.4H84V42.1Z" fill="#CE2B37"/>
<path d="M61 71.2V73.9H60.7V71.2H61Z" fill="#F4F0C3"/>
<path d="M62.1 71.4V72H62.6V72.3H62.1V73.3C62.1 73.5 62.2 73.7 62.4 73.7C62.5 73.7 62.5 73.7 62.6 73.7V74C62.5 74 62.4 74 62.3 74C62.2 74 62.2 74 62.1 74C62 74 62 73.9 61.9 73.9C61.8 73.8 61.8 73.6 61.8 73.4V72.4H61.5V72.1H61.8V71.6L62.1 71.4Z" fill="#F4F0C3"/>
<path d="M64 73.8V73.6C63.9 73.7 63.8 73.8 63.7 73.8C63.6 73.8 63.5 73.9 63.4 73.9C63.3 73.9 63.2 73.9 63.2 73.9C63.1 73.9 63.1 73.8 63 73.8C62.9 73.7 62.9 73.7 62.9 73.6C62.9 73.5 62.9 73.5 62.9 73.4C62.9 72.9 63.3 72.7 64 72.7C64 72.6 64 72.6 64 72.5C64 72.4 64 72.4 63.9 72.3L63.8 72.2C63.7 72.2 63.7 72.2 63.6 72.2C63.4 72.2 63.3 72.2 63.1 72.3L63 72.1C63.2 72 63.4 71.9 63.6 71.9C63.7 71.9 63.8 71.9 63.9 71.9C64 71.9 64.1 72 64.2 72.1C64.3 72.2 64.3 72.3 64.4 72.4C64.4 72.5 64.4 72.6 64.4 72.7V73.4C64.4 73.6 64.4 73.7 64.4 73.9L64 73.8ZM64 72.8C63.6 72.8 63.2 72.9 63.2 73.2V73.3C63.2 73.3 63.2 73.4 63.3 73.4L63.4 73.5H63.5C63.6 73.5 63.7 73.5 63.8 73.4C63.9 73.3 63.9 73.3 64 73.2V73.1V72.8Z" fill="#F4F0C3"/>
<path d="M64.9 71H65.3V73.8H64.9V71Z" fill="#F4F0C3"/>
<path d="M65.9 71.9L66.3 73C66.3 73.1 66.4 73.3 66.4 73.4C66.4 73.3 66.5 73.1 66.5 73L66.9 71.9H67.3L66.8 73.3C66.7 73.7 66.5 74.2 66.1 74.5C66 74.6 65.8 74.7 65.7 74.7L65.6 74.4C65.7 74.4 65.8 74.3 65.9 74.2C66 74.1 66.1 74 66.2 73.8V73.7V73.6L65.5 71.8H65.9V71.9Z" fill="#F4F0C3"/>
<path d="M172 42.1H149.9V51.6H172V42.1Z" fill="white"/>
<path d="M142.7 58.9H132.6V68.5H142.7V58.9Z" fill="white"/>
<path d="M172 58.9H149.9V68.5H172V58.9Z" fill="white"/>
<path d="M142.7 42.1H132.6V51.6H142.7V42.1Z" fill="white"/>
<path d="M172 51.7H149.9V58.9H172V51.7Z" fill="#003580"/>
<path d="M142.7 51.7H132.6V58.9H142.7V51.7Z" fill="#003580"/>
<path d="M149.9 51.7V42.2H142.7V51.7V58.9V68.5H149.9V58.9V51.7Z" fill="#003580"/>
<path d="M146.5 71.2H147.9V71.5H146.8V72.4H147.8V72.7H146.8V73.9H146.5V71.2Z" fill="#F4F0C3"/>
<path d="M148.7 71.4C148.7 71.5 148.7 71.5 148.7 71.4C148.7 71.5 148.7 71.5 148.7 71.6C148.7 71.6 148.7 71.6 148.6 71.7H148.5H148.4H148.3C148.3 71.7 148.3 71.7 148.3 71.6V71.5V71.4V71.3C148.3 71.3 148.3 71.3 148.4 71.2C148.5 71.1 148.5 71.2 148.5 71.2H148.6C148.6 71.2 148.7 71.2 148.7 71.3V71.4ZM148.3 73.9V72H148.7V73.9H148.3Z" fill="#F4F0C3"/>
<path d="M149.2 72.5C149.2 72.3 149.2 72.1 149.2 72H149.5V72.3C149.6 72.2 149.7 72.1 149.8 72C149.9 71.9 150 71.9 150.2 71.9C150.5 71.9 150.9 72.1 150.9 72.7V73.8H150.6V72.7C150.6 72.4 150.5 72.1 150.2 72.1C150.1 72.1 150 72.1 149.9 72.2C149.8 72.3 149.8 72.4 149.7 72.5C149.7 72.6 149.7 72.6 149.7 72.7V73.9H149.4L149.2 72.5Z" fill="#F4F0C3"/>
<path d="M151.4 71.1H151.8V73.9H151.4V71.1Z" fill="#F4F0C3"/>
<path d="M153.4 73.9V73.7C153.3 73.8 153.2 73.9 153.1 73.9C153 73.9 152.9 74 152.8 74C152.7 74 152.7 74 152.6 74C152.5 74 152.5 73.9 152.4 73.9C152.3 73.9 152.3 73.8 152.3 73.7C152.3 73.6 152.3 73.6 152.3 73.5C152.3 73 152.7 72.8 153.4 72.8C153.4 72.7 153.4 72.7 153.4 72.6C153.4 72.5 153.4 72.5 153.3 72.4L153.2 72.3C153.1 72.3 153.1 72.3 153 72.3C152.8 72.3 152.7 72.3 152.5 72.4L152.4 72.2C152.6 72.1 152.8 72 153 72C153.6 72 153.7 72.4 153.7 72.8V73.5C153.7 73.7 153.7 73.8 153.7 74L153.4 73.9ZM153.4 72.9C153 72.9 152.6 73 152.6 73.3V73.4C152.6 73.4 152.6 73.5 152.7 73.5L152.8 73.6H152.9C153 73.6 153.1 73.6 153.2 73.5C153.3 73.4 153.3 73.4 153.4 73.3V73.2V72.9Z" fill="#F4F0C3"/>
<path d="M154.2 72.5C154.2 72.3 154.2 72.1 154.2 72H154.5V72.3C154.6 72.2 154.7 72.1 154.8 72C154.9 71.9 155 71.9 155.2 71.9C155.5 71.9 155.9 72.1 155.9 72.7V73.8H155.6V72.7C155.6 72.4 155.5 72.1 155.2 72.1C155.1 72.1 155 72.1 154.9 72.2C154.8 72.3 154.8 72.4 154.7 72.5C154.7 72.6 154.7 72.6 154.7 72.7V73.9H154.4L154.2 72.5Z" fill="#F4F0C3"/>
<path d="M158.1 71.1V73.4C158.1 73.6 158.1 73.7 158.1 73.9H157.8V73.6C157.7 73.7 157.6 73.8 157.5 73.9C157.4 74 157.3 74 157.1 74C157 74 156.9 74 156.8 73.9C156.7 73.8 156.6 73.8 156.5 73.7C156.4 73.6 156.4 73.5 156.3 73.4C156.3 73.3 156.3 73.2 156.3 73C156.3 72.9 156.3 72.8 156.3 72.6C156.3 72.5 156.4 72.4 156.5 72.3C156.6 72.2 156.7 72.1 156.8 72.1C156.9 72 157 72 157.2 72C157.3 72 157.4 72 157.5 72.1C157.6 72.2 157.7 72.2 157.8 72.3V71.2H158.1V71.1ZM157.7 72.8V72.7C157.7 72.6 157.6 72.5 157.5 72.4C157.4 72.3 157.3 72.3 157.2 72.3C156.8 72.3 156.6 72.6 156.6 73C156.6 73.4 156.8 73.7 157.2 73.7C157.3 73.7 157.4 73.7 157.5 73.6C157.6 73.5 157.7 73.4 157.7 73.3C157.7 73.3 157.7 73.2 157.7 73.1V72.8Z" fill="#F4F0C3"/>
<path d="M216 0H176.6V26.3H216V0Z" fill="#00247D"/>
<path d="M207 6.70001V7.50001L208.5 6.70001H207Z" fill="white"/>
<path d="M207.3 7.60001L206.9 7.00001L208.5 6.70001L207.3 7.60001Z" fill="white"/>
<path d="M207 6.70001V7.50001L205.5 6.70001H207Z" fill="white"/>
<path d="M206.7 7.60001L207.1 7.00001L205.4 6.70001L206.7 7.60001Z" fill="white"/>
<path d="M207.5 7L206.8 7.2L208 8.4L207.5 7Z" fill="white"/>
<path d="M206.7 7.6L207.1 7L207.9 8.5L206.7 7.6Z" fill="white"/>
<path d="M206.6 7.00001L207.3 7.20001L207 5.60001L206.6 7.00001Z" fill="white"/>
<path d="M207.5 7L206.8 7.2L207.1 5.5L207.5 7Z" fill="white"/>
<path d="M206.6 7L207.3 7.2L206.1 8.4L206.6 7Z" fill="white"/>
<path d="M207.3 7.6L206.9 7L206.1 8.5L207.3 7.6Z" fill="white"/>
<path d="M207 6.79999V7.29999L208 6.79999H207Z" fill="#CC142B"/>
<path d="M207.2 7.39999L206.9 6.99999L208 6.79999L207.2 7.39999Z" fill="#CC142B"/>
<path d="M207 6.79999V7.29999L206 6.79999H207Z" fill="#CC142B"/>
<path d="M206.8 7.39999L207.1 6.99999L206 6.79999L206.8 7.39999Z" fill="#CC142B"/>
<path d="M207.3 7.10001L206.8 7.20001L207.6 8.00001L207.3 7.10001Z" fill="#CC142B"/>
<path d="M206.8 7.4L207.1 7L207.6 8L206.8 7.4Z" fill="#CC142B"/>
<path d="M206.7 7.10001L207.2 7.20001L207 6.10001L206.7 7.10001Z" fill="#CC142B"/>
<path d="M207.3 7.10001L206.8 7.20001L207 6.10001L207.3 7.10001Z" fill="#CC142B"/>
<path d="M206.7 7.10001L207.2 7.20001L206.4 8.00001L206.7 7.10001Z" fill="#CC142B"/>
<path d="M207.2 7.4L206.9 7L206.4 8L207.2 7.4Z" fill="#CC142B"/>
<path d="M210.9 10.1V10.8L212.2 10.1H210.9Z" fill="white"/>
<path d="M211.2 10.9L210.8 10.4L212.3 10.2L211.2 10.9Z" fill="white"/>
<path d="M210.9 10.1V10.8L209.6 10.1H210.9Z" fill="white"/>
<path d="M210.7 10.9L211.1 10.4L209.6 10.2L210.7 10.9Z" fill="white"/>
<path d="M211.4 10.4L210.8 10.6L211.8 11.7L211.4 10.4Z" fill="white"/>
<path d="M210.7 10.9L211.1 10.4L211.8 11.7L210.7 10.9Z" fill="white"/>
<path d="M210.5 10.4L211.1 10.6L210.9 9.10001L210.5 10.4Z" fill="white"/>
<path d="M211.4 10.4L210.8 10.6L211 9.10001L211.4 10.4Z" fill="white"/>
<path d="M210.5 10.4L211.1 10.6L210.1 11.7L210.5 10.4Z" fill="white"/>
<path d="M211.2 10.9L210.8 10.4L210.1 11.7L211.2 10.9Z" fill="white"/>
<path d="M210.9 10.3V10.7L211.7 10.3H210.9Z" fill="#CC142B"/>
<path d="M211.1 10.8L210.9 10.5L211.8 10.3L211.1 10.8Z" fill="#CC142B"/>
<path d="M210.9 10.3V10.7L210.1 10.3H210.9Z" fill="#CC142B"/>
<path d="M210.8 10.8L211 10.5L210.1 10.3L210.8 10.8Z" fill="#CC142B"/>
<path d="M211.2 10.5L210.8 10.6L211.4 11.3L211.2 10.5Z" fill="#CC142B"/>
<path d="M210.8 10.8L211 10.5L211.4 11.3L210.8 10.8Z" fill="#CC142B"/>
<path d="M210.7 10.5L211.1 10.6L211 9.70001L210.7 10.5Z" fill="#CC142B"/>
<path d="M211.2 10.5L210.8 10.6L210.9 9.70001L211.2 10.5Z" fill="#CC142B"/>
<path d="M210.7 10.5L211.1 10.6L210.5 11.3L210.7 10.5Z" fill="#CC142B"/>
<path d="M211.1 10.8L210.9 10.5L210.5 11.3L211.1 10.8Z" fill="#CC142B"/>
<path d="M202.4 11.3V12L203.9 11.2H202.4V11.3Z" fill="white"/>
<path d="M202.7 12.2L202.3 11.6L203.9 11.3L202.7 12.2Z" fill="white"/>
<path d="M202.4 11.3V12L200.9 11.2H202.4V11.3Z" fill="white"/>
<path d="M202.1 12.2L202.5 11.6L200.8 11.3L202.1 12.2Z" fill="white"/>
<path d="M202.9 11.6L202.2 11.8L203.4 13L202.9 11.6Z" fill="white"/>
<path d="M202.1 12.2L202.5 11.6L203.3 13.1L202.1 12.2Z" fill="white"/>
<path d="M202 11.6L202.7 11.8L202.4 10.1L202 11.6Z" fill="white"/>
<path d="M202.9 11.6L202.2 11.8L202.5 10.1L202.9 11.6Z" fill="white"/>
<path d="M202 11.6L202.7 11.8L201.5 13L202 11.6Z" fill="white"/>
<path d="M202.7 12.2L202.3 11.6L201.5 13.1L202.7 12.2Z" fill="white"/>
<path d="M202.4 11.4V11.9L203.4 11.4H202.4Z" fill="#CC142B"/>
<path d="M202.6 12L202.3 11.6L203.4 11.4L202.6 12Z" fill="#CC142B"/>
<path d="M202.4 11.4V11.9L201.4 11.4H202.4Z" fill="#CC142B"/>
<path d="M202.2 12L202.5 11.6L201.4 11.4L202.2 12Z" fill="#CC142B"/>
<path d="M202.7 11.7L202.2 11.8L203 12.6L202.7 11.7Z" fill="#CC142B"/>
<path d="M202.2 12L202.5 11.6L203 12.6L202.2 12Z" fill="#CC142B"/>
<path d="M202.1 11.7L202.6 11.8L202.4 10.7L202.1 11.7Z" fill="#CC142B"/>
<path d="M202.7 11.7L202.2 11.8L202.4 10.7L202.7 11.7Z" fill="#CC142B"/>
<path d="M202.1 11.7L202.6 11.8L201.8 12.6L202.1 11.7Z" fill="#CC142B"/>
<path d="M202.6 12L202.3 11.6L201.8 12.6L202.6 12Z" fill="#CC142B"/>
<path d="M207 18.5V19.3L208.7 18.5H207Z" fill="white"/>
<path d="M207.3 19.5L206.8 18.8L208.6 18.5L207.3 19.5Z" fill="white"/>
<path d="M207 18.5V19.3L205.3 18.5H207Z" fill="white"/>
<path d="M206.7 19.5L207.2 18.8L205.4 18.5L206.7 19.5Z" fill="white"/>
<path d="M207.5 18.9L206.7 19.2L208 20.5L207.5 18.9Z" fill="white"/>
<path d="M206.7 19.5L207.2 18.8L208.1 20.4L206.7 19.5Z" fill="white"/>
<path d="M206.5 18.9L207.3 19.2L207 17.4L206.5 18.9Z" fill="white"/>
<path d="M207.5 18.9L206.7 19.2L207 17.4L207.5 18.9Z" fill="white"/>
<path d="M206.5 18.9L207.3 19.2L206 20.5L206.5 18.9Z" fill="white"/>
<path d="M207.3 19.5L206.8 18.8L205.9 20.4L207.3 19.5Z" fill="white"/>
<path d="M207 18.7V19.3L208.2 18.7H207Z" fill="#CC142B"/>
<path d="M207.2 19.4L206.9 18.9L208.2 18.7L207.2 19.4Z" fill="#CC142B"/>
<path d="M207 18.7V19.3L205.8 18.7H207Z" fill="#CC142B"/>
<path d="M206.8 19.4L207.1 18.9L205.8 18.7L206.8 19.4Z" fill="#CC142B"/>
<path d="M207.4 18.9L206.9 19.1L207.8 20L207.4 18.9Z" fill="#CC142B"/>
<path d="M206.8 19.4L207.1 18.9L207.7 20L206.8 19.4Z" fill="#CC142B"/>
<path d="M206.6 18.9L207.2 19.1L207 17.8L206.6 18.9Z" fill="#CC142B"/>
<path d="M207.4 18.9L206.9 19.1L207.1 17.8L207.4 18.9Z" fill="#CC142B"/>
<path d="M206.6 18.9L207.2 19.1L206.3 20L206.6 18.9Z" fill="#CC142B"/>
<path d="M207.2 19.4L206.9 18.9L206.3 20L207.2 19.4Z" fill="#CC142B"/>
<path d="M176.6 8.79999V11.8L181.1 8.79999H176.6Z" fill="#00247D"/>
<path d="M194.2 0H188.6V3.7L194.2 0Z" fill="#00247D"/>
<path d="M178.6 13.1H184.2V9.39999L178.6 13.1Z" fill="#00247D"/>
<path d="M176.6 1.39999V4.39999H181.1L176.6 1.39999Z" fill="#00247D"/>
<path d="M184.3 0H178.7L184.3 3.7V0Z" fill="#00247D"/>
<path d="M196.3 11.8V8.79999H191.8L196.3 11.8Z" fill="#00247D"/>
<path d="M196.3 4.39999V1.39999L191.8 4.39999H196.3Z" fill="#00247D"/>
<path d="M188.6 13.1H194.2L188.6 9.39999V13.1Z" fill="#00247D"/>
<path d="M184.3 4.4V3.7L178.6 0H176.5L183.1 4.4H184.3Z" fill="white"/>
<path d="M181.8 4.39999L176.6 0.899994V1.39999L181.1 4.39999H181.8Z" fill="white"/>
<path d="M188.6 8.80001V9.40001L194.2 13.1H196.2L189.6 8.70001H188.6V8.80001Z" fill="white"/>
<path d="M184.3 8.89999L178 13.1H178.7L184.3 9.39999V8.89999Z" fill="white"/>
<path d="M181.1 8.79999L176.6 11.8V13.2L183.2 8.79999H181.1Z" fill="white"/>
<path d="M191.1 8.79999L196.3 12.3V11.8L191.8 8.79999H191.1Z" fill="white"/>
<path d="M191.8 4.4L196.3 1.4V0L189.7 4.4H191.8Z" fill="white"/>
<path d="M188.6 4.2L194.9 0H194.2L188.6 3.7V4.2Z" fill="white"/>
<path d="M183.2 4.4L176.6 0V0.9L181.8 4.4H183.2Z" fill="#CF142B"/>
<path d="M191.1 8.79999H189.7L196.3 13.2V12.3L191.1 8.79999Z" fill="#CF142B"/>
<path d="M184.3 8.79999H183.2L176.6 13.2H178L184.3 8.99999V8.79999Z" fill="#CF142B"/>
<path d="M188.6 4.4H189.7L196.3 0H194.9L188.6 4.2V4.4Z" fill="#CF142B"/>
<path d="M187.8 5.2H196.3V4.4H191.8H189.7H188.6V4.2V3.7V0H187.7V5.2H187.8Z" fill="white"/>
<path d="M188.6 8.79999H189.7H191.1H191.8H196.3V7.89999H187.8V13.2H188.7V9.39999V8.79999H188.6Z" fill="white"/>
<path d="M185.1 7.89999H176.6V8.79999H181.1H183.2H184.3V8.99999V9.49999V13.2H185.2V7.89999H185.1Z" fill="white"/>
<path d="M185.1 5.2V0H184.2V3.7V4.3H183.1H181.7H181H176.5V5.2H185.1Z" fill="white"/>
<path d="M187.8 7.9H196.3V6.6V5.2H187.8V0H186.5H185.2V5.2H176.7V6.5V7.8H185.2V13.1H186.5H187.8V7.9Z" fill="#CF142B"/>
<path d="M185.8 31.6V29H186.2L187.1 30.3C187.3 30.6 187.4 30.9 187.6 31.2C187.6 30.9 187.6 30.5 187.6 30.1V29H187.9V31.6H187.6L186.8 30.3C186.6 30 186.4 29.7 186.3 29.4C186.3 29.7 186.3 30.1 186.3 30.5V31.6H185.8Z" fill="#F4F0C3"/>
<path d="M188.6 30.7C188.6 30.8 188.6 30.9 188.6 31C188.6 31.1 188.7 31.2 188.7 31.2C188.8 31.3 188.8 31.3 188.9 31.3C189 31.3 189.1 31.3 189.2 31.3C189.4 31.3 189.6 31.3 189.7 31.2L189.8 31.4C189.6 31.5 189.4 31.5 189.2 31.5C189.1 31.5 188.9 31.5 188.8 31.4C188.7 31.4 188.6 31.3 188.5 31.2C188.4 31.1 188.3 31 188.3 30.9C188.3 30.8 188.2 30.6 188.3 30.5C188.3 30.4 188.3 30.2 188.3 30.1C188.3 30 188.4 29.9 188.5 29.8C188.6 29.7 188.7 29.6 188.8 29.6C188.9 29.5 189 29.5 189.2 29.5C189.3 29.5 189.4 29.5 189.5 29.6C189.6 29.6 189.7 29.7 189.8 29.8C189.9 29.9 189.9 30 190 30.1C190 30.2 190 30.3 190 30.4C190 30.5 190 30.5 190 30.6L188.6 30.7ZM189.6 30.4C189.6 30.3 189.6 30.3 189.6 30.2C189.6 30.1 189.5 30.1 189.5 30C189.5 29.9 189.4 29.9 189.3 29.9C189.2 29.9 189.2 29.9 189.1 29.9C189 29.9 188.8 30 188.7 30.1C188.6 30.2 188.5 30.3 188.5 30.5H189.6V30.4Z" fill="#F4F0C3"/>
<path d="M190.5 29.7L190.8 30.7C190.9 30.9 190.9 31.1 190.9 31.3C190.9 31.1 191 30.9 191.1 30.7L191.4 29.7H191.7L192 30.7C192.1 30.9 192.1 31.1 192.2 31.3C192.2 31.1 192.3 30.9 192.3 30.7L192.6 29.7H192.9L192.3 31.6H192L191.7 30.7C191.6 30.5 191.6 30.3 191.5 30.1C191.5 30.3 191.4 30.5 191.3 30.7L191 31.6H190.7L190.1 29.7H190.5Z" fill="#F4F0C3"/>
<path d="M193.9 31.4L195.4 29.3H194.1V29H195.9V29.2L194.4 31.3H195.9V31.6H194V31.4H193.9Z" fill="#F4F0C3"/>
<path d="M196.4 30.7C196.4 30.8 196.4 30.9 196.4 31C196.4 31.1 196.5 31.2 196.5 31.2C196.6 31.3 196.6 31.3 196.7 31.3C196.8 31.3 196.9 31.3 197 31.3C197.2 31.3 197.4 31.3 197.5 31.2L197.6 31.4C197.4 31.5 197.2 31.5 197 31.5C196.9 31.5 196.7 31.5 196.6 31.4C196.5 31.4 196.4 31.3 196.3 31.2C196.2 31.1 196.1 31 196.1 30.9C196.1 30.8 196 30.6 196.1 30.5C196.1 30.4 196.1 30.2 196.1 30.1C196.1 30 196.2 29.9 196.3 29.8C196.4 29.7 196.5 29.6 196.6 29.6C196.7 29.5 196.8 29.5 197 29.5C197.1 29.5 197.2 29.5 197.3 29.6C197.4 29.7 197.5 29.7 197.6 29.8C197.7 29.9 197.7 30 197.8 30.1C197.8 30.2 197.8 30.3 197.8 30.4C197.8 30.5 197.8 30.5 197.8 30.6L196.4 30.7ZM197.4 30.4C197.4 30.3 197.4 30.3 197.4 30.2C197.4 30.1 197.3 30.1 197.3 30C197.3 29.9 197.2 29.9 197.1 29.9C197 29.9 197 29.9 196.9 29.9C196.8 29.9 196.6 30 196.5 30.1C196.4 30.2 196.3 30.3 196.3 30.5H197.4V30.4Z" fill="#F4F0C3"/>
<path d="M199.3 31.6V31.4C199.2 31.5 199.1 31.6 199 31.6C198.9 31.7 198.8 31.7 198.7 31.7C198.6 31.7 198.6 31.7 198.5 31.7C198.4 31.7 198.4 31.6 198.3 31.6C198.2 31.5 198.2 31.5 198.2 31.4C198.2 31.3 198.2 31.3 198.2 31.2C198.2 30.7 198.6 30.5 199.3 30.5C199.3 30.4 199.3 30.4 199.3 30.3C199.3 30.2 199.2 30.2 199.2 30.1L199.1 30C199 30 199 30 198.9 30C198.7 30 198.5 30 198.4 30.1L198.3 29.9C198.5 29.8 198.7 29.7 198.9 29.7C199 29.7 199.1 29.7 199.2 29.7C199.3 29.7 199.4 29.8 199.5 29.9C199.6 30 199.6 30.1 199.7 30.2C199.7 30.3 199.7 30.4 199.7 30.5V31.2C199.7 31.3 199.7 31.5 199.7 31.7L199.3 31.6ZM199.2 30.6C198.8 30.6 198.4 30.7 198.4 31V31.1C198.4 31.1 198.4 31.2 198.5 31.2L198.6 31.3H198.7C198.8 31.3 198.9 31.3 199 31.2C199.1 31.1 199.1 31.1 199.2 31V30.9V30.6Z" fill="#F4F0C3"/>
<path d="M200.1 28.8H200.4V31.6H200.1V28.8Z" fill="#F4F0C3"/>
<path d="M202.1 31.6V31.4C202 31.5 201.9 31.6 201.8 31.6C201.7 31.7 201.6 31.7 201.5 31.7C201.4 31.7 201.4 31.7 201.3 31.7C201.2 31.7 201.2 31.6 201.1 31.6C201 31.5 201 31.5 201 31.4C201 31.3 201 31.3 201 31.2C201 30.7 201.4 30.5 202.1 30.5C202.1 30.4 202.1 30.4 202.1 30.3C202.1 30.2 202 30.2 202 30.1L201.9 30C201.8 30 201.8 30 201.7 30C201.5 30 201.3 30 201.2 30.1L201.1 29.9C201.3 29.8 201.5 29.7 201.7 29.7C202.3 29.7 202.4 30.1 202.4 30.5V31.2C202.4 31.3 202.4 31.5 202.4 31.7L202.1 31.6ZM202 30.6C201.6 30.6 201.2 30.7 201.2 31V31.1C201.2 31.1 201.2 31.2 201.3 31.2L201.4 31.3H201.5C201.6 31.3 201.7 31.3 201.8 31.2C201.9 31.1 201.9 31.1 202 31V30.9V30.6Z" fill="#F4F0C3"/>
<path d="M202.9 30.2C202.9 30 202.9 29.8 202.9 29.7H203.2V30C203.3 29.9 203.4 29.8 203.5 29.7C203.6 29.6 203.7 29.6 203.9 29.6C204.2 29.6 204.6 29.8 204.6 30.4V31.5H204.3V30.4C204.3 30.1 204.2 29.8 203.9 29.8C203.8 29.8 203.7 29.8 203.6 29.9C203.5 30 203.5 30.1 203.4 30.2C203.4 30.3 203.4 30.3 203.4 30.4V31.5H203L202.9 30.2Z" fill="#F4F0C3"/>
<path d="M206.8 28.8V31.1C206.8 31.3 206.8 31.5 206.8 31.6H206.5V31.3C206.4 31.4 206.3 31.5 206.2 31.6C206.1 31.7 206 31.7 205.8 31.7C205.7 31.7 205.6 31.7 205.4 31.6C205.3 31.5 205.2 31.5 205.1 31.4C205 31.3 205 31.2 204.9 31.1C204.8 31 204.9 30.9 204.9 30.7C204.9 30.6 204.9 30.5 204.9 30.3C204.9 30.2 205 30.1 205.1 30C205.2 29.9 205.3 29.8 205.4 29.8C205.5 29.7 205.6 29.7 205.8 29.7C205.9 29.7 206 29.7 206.1 29.8C206.2 29.9 206.3 29.9 206.3 30V28.9H206.8V28.8ZM206.4 30.4V30.3C206.4 30.2 206.3 30.1 206.2 30C206.1 29.9 206 29.9 205.9 29.9C205.6 29.9 205.3 30.2 205.3 30.6C205.3 31 205.5 31.3 205.9 31.3C206 31.3 206.1 31.3 206.2 31.2C206.3 31.1 206.4 31 206.4 30.9C206.4 30.9 206.4 30.8 206.4 30.7V30.4Z" fill="#F4F0C3"/>
<path d="M84 0H44.6V26.3H84V0Z" fill="white"/>
<path d="M64.3 21C68.7 21 72.2 17.5 72.2 13.1C72.2 8.70001 68.7 5.20001 64.3 5.20001C59.9 5.20001 56.4 8.70001 56.4 13.1C56.4 17.5 59.9 21 64.3 21Z" fill="#BC002D"/>
<path d="M60.4 29.3H60.7V31C60.7 31.7 60.4 31.9 59.9 31.9C59.8 31.9 59.6 31.9 59.5 31.8L59.6 31.5C59.7 31.5 59.8 31.5 59.9 31.5C60.2 31.5 60.4 31.4 60.4 30.8V29.3Z" fill="#F4F0C3"/>
<path d="M62.4 31.9V31.7C62.3 31.8 62.2 31.9 62.1 31.9C62 31.9 61.9 32 61.8 32C61.7 32 61.6 32 61.6 32C61.5 32 61.5 31.9 61.4 31.9C61.3 31.8 61.3 31.8 61.3 31.7C61.3 31.6 61.3 31.6 61.3 31.5C61.3 31 61.7 30.8 62.5 30.8C62.5 30.7 62.5 30.7 62.5 30.6C62.5 30.5 62.5 30.5 62.4 30.4L62.3 30.3C62.2 30.3 62.2 30.3 62.1 30.3C61.9 30.3 61.8 30.3 61.6 30.4L61.5 30.2C61.7 30.1 61.9 30 62.1 30C62.7 30 62.8 30.4 62.8 30.8V31.5C62.8 31.7 62.8 31.8 62.8 32L62.4 31.9ZM62.4 30.9C62 30.9 61.6 31 61.6 31.3V31.4C61.6 31.4 61.6 31.5 61.7 31.5L61.8 31.6H61.9C62 31.6 62.1 31.6 62.2 31.5C62.3 31.4 62.3 31.4 62.4 31.3V31.2V30.9Z" fill="#F4F0C3"/>
<path d="M63.2 30.6C63.2 30.3 63.2 30.2 63.2 30H63.5V30.3C63.6 30.2 63.7 30.1 63.8 30C63.9 30 64 30 64.2 30C64.3 30 64.4 30 64.5 30.1C64.6 30.2 64.7 30.2 64.8 30.3C64.9 30.4 64.9 30.5 65 30.6C65 30.7 65 30.8 65 31C65 31.1 65 31.2 65 31.4C65 31.5 64.9 31.6 64.8 31.7C64.7 31.8 64.6 31.9 64.5 31.9C64.4 32 64.3 32 64.1 32C64 32 63.9 32 63.8 31.9C63.7 31.8 63.6 31.8 63.5 31.7V32.7H63.2V30.6ZM63.6 31.1C63.6 31.1 63.6 31.2 63.6 31.3C63.6 31.4 63.7 31.5 63.8 31.6C63.9 31.7 64 31.7 64.1 31.7C64.5 31.7 64.7 31.4 64.7 31C64.7 30.6 64.5 30.3 64.1 30.3C64 30.3 63.9 30.3 63.8 30.4C63.7 30.5 63.6 30.6 63.6 30.7V30.8V31.1Z" fill="#F4F0C3"/>
<path d="M66.5 31.9V31.7C66.4 31.8 66.3 31.9 66.2 31.9C66.1 32 66 32 65.9 32C65.8 32 65.8 32 65.7 32C65.6 32 65.6 31.9 65.5 31.9C65.4 31.8 65.4 31.8 65.4 31.7C65.4 31.6 65.4 31.6 65.4 31.5C65.4 31 65.8 30.8 66.5 30.8C66.5 30.7 66.5 30.7 66.5 30.6C66.5 30.5 66.5 30.5 66.4 30.5L66.3 30.4C66.2 30.4 66.2 30.4 66.1 30.4C65.9 30.4 65.8 30.4 65.6 30.5L65.5 30.2C65.7 30.1 65.9 30 66.1 30C66.7 30 66.8 30.4 66.8 30.8V31.5C66.8 31.7 66.8 31.8 66.8 32H66.5V31.9ZM66.5 30.9C66.1 30.9 65.7 31 65.7 31.3V31.4C65.7 31.4 65.7 31.5 65.8 31.5L65.9 31.6H66C66.1 31.6 66.2 31.6 66.3 31.5C66.4 31.4 66.4 31.4 66.5 31.3V31.2V30.9Z" fill="#F4F0C3"/>
<path d="M67.4 30.5C67.4 30.3 67.4 30.1 67.4 30H67.7V30.3C67.8 30.2 67.9 30.1 68 30C68.1 29.9 68.2 29.9 68.4 29.9C68.7 29.9 69.1 30.1 69.1 30.7V31.8H68.8V30.7C68.8 30.4 68.7 30.1 68.4 30.1C68.3 30.1 68.2 30.1 68.1 30.2C68 30.3 68 30.4 67.9 30.5C67.9 30.6 67.9 30.6 67.9 30.7V31.9H67.5L67.4 30.5Z" fill="#F4F0C3"/>
<path d="M39.4 42.1H0V68.4H39.4V42.1Z" fill="#436F4D"/>
<path d="M39.4 42.1H0V59.6H39.4V42.1Z" fill="white"/>
<path d="M39.4 42.1H0V50.9H39.4V42.1Z" fill="#CD2A3E"/>
<path d="M13.1 71V72.1H14.4V71H14.7V73.7H14.4V72.4H13.1V73.7H12.8V71H13.1Z" fill="#F4F0C3"/>
<path d="M16.9 73.2C16.9 73.4 16.9 73.5 16.9 73.7H16.6V73.4C16.5 73.5 16.4 73.6 16.3 73.7C16.2 73.8 16.1 73.8 15.9 73.8C15.6 73.8 15.2 73.6 15.2 73V71.9H15.5V73C15.5 73.4 15.6 73.6 15.9 73.6C16 73.6 16.1 73.6 16.2 73.5C16.3 73.4 16.3 73.4 16.4 73.3C16.4 73.2 16.4 73.2 16.4 73.1V71.9H16.8L16.9 73.2Z" fill="#F4F0C3"/>
<path d="M17.5 72.3C17.5 72.1 17.5 71.9 17.5 71.8H17.8V72.1C17.9 72 18 71.9 18.1 71.8C18.2 71.7 18.3 71.7 18.5 71.7C18.8 71.7 19.2 71.9 19.2 72.5V73.7H18.8V72.6C18.8 72.3 18.7 72 18.4 72C18.3 72 18.2 72 18.1 72.1C18 72.2 18 72.3 17.9 72.4C17.9 72.5 17.9 72.5 17.9 72.6V73.8H17.5V72.3Z" fill="#F4F0C3"/>
<path d="M21.3 71.8C21.3 71.9 21.3 72.1 21.3 72.3V73.4C21.3 73.6 21.3 73.7 21.3 73.9C21.3 74.1 21.2 74.2 21.1 74.3C20.9 74.5 20.7 74.5 20.4 74.5C20.2 74.5 20 74.5 19.8 74.3L19.9 74C20.1 74.1 20.3 74.2 20.5 74.2C20.8 74.2 21.1 74 21.1 73.5V73.3C21 73.4 21 73.5 20.8 73.5C20.7 73.6 20.6 73.6 20.5 73.6C20.4 73.6 20.3 73.6 20.2 73.5C20.1 73.5 20 73.4 19.9 73.3C19.8 73.2 19.8 73.1 19.7 73C19.7 72.9 19.7 72.8 19.7 72.7C19.7 72.6 19.7 72.5 19.7 72.3C19.7 72.2 19.8 72.1 19.9 72C20 71.9 20.1 71.8 20.2 71.8C20.3 71.7 20.4 71.7 20.6 71.7C20.7 71.7 20.8 71.7 20.9 71.8C21 71.9 21.1 71.9 21.2 72.1V71.8H21.3ZM20.9 72.5C20.9 72.5 20.9 72.4 20.9 72.3C20.9 72.2 20.8 72.1 20.7 72C20.7 72 20.6 72 20.4 72C20.1 72 19.8 72.3 19.8 72.7C19.8 73.1 20 73.4 20.4 73.4C20.5 73.4 20.6 73.4 20.7 73.3C20.8 73.2 20.8 73.1 20.9 73C20.9 72.9 20.9 72.9 20.9 72.8V72.5Z" fill="#F4F0C3"/>
<path d="M22.9 73.7V73.5C22.8 73.6 22.7 73.7 22.6 73.7C22.5 73.7 22.4 73.8 22.3 73.8C22.2 73.8 22.1 73.8 22.1 73.8C22 73.8 22 73.7 21.9 73.7C21.8 73.6 21.8 73.6 21.8 73.5C21.8 73.4 21.8 73.4 21.8 73.3C21.8 72.8 22.2 72.6 22.9 72.6C22.9 72.5 22.9 72.5 22.9 72.4C22.9 72.3 22.9 72.3 22.8 72.2L22.7 72.1C22.6 72.1 22.6 72.1 22.5 72.1C22.3 72.1 22.2 72.2 22 72.3L21.9 72C22.1 71.9 22.3 71.8 22.5 71.7C23.1 71.7 23.2 72.1 23.2 72.5V73.2C23.2 73.4 23.2 73.5 23.2 73.7H22.9ZM22.9 72.7C22.5 72.7 22.1 72.8 22.1 73.1V73.2C22.1 73.2 22.1 73.3 22.2 73.3L22.3 73.4H22.4C22.5 73.4 22.6 73.4 22.7 73.3C22.8 73.2 22.8 73.2 22.9 73.1V73V72.7Z" fill="#F4F0C3"/>
<path d="M23.7 72.4C23.7 72.2 23.7 72 23.7 71.8H24V72.2C24 72.1 24.1 72 24.2 71.9C24.3 71.8 24.4 71.8 24.5 71.8H24.6V72.1H24.5C24.4 72.1 24.3 72.2 24.2 72.2C24.1 72.2 24.1 72.4 24.1 72.5C24.1 72.6 24.1 72.6 24.1 72.7V73.7H23.7V72.4Z" fill="#F4F0C3"/>
<path d="M25.3 71.8L25.7 72.9C25.7 73 25.8 73.2 25.8 73.3C25.8 73.2 25.9 73 25.9 72.9L26.3 71.8H26.7L26.2 73.2C26.1 73.6 25.9 74 25.6 74.4C25.5 74.5 25.3 74.6 25.2 74.6L25 74.3C25.1 74.3 25.2 74.2 25.3 74.1C25.4 74 25.5 73.9 25.6 73.7V73.6V73.5L24.9 71.7H25.3V71.8Z" fill="#F4F0C3"/>
<path d="M128.1 0H88.6V26.3H128.1V0Z" fill="#169B62"/>
<path d="M128.1 0H101.8V26.3H128.1V0Z" fill="white"/>
<path d="M128.1 0H115V26.3H128.1V0Z" fill="#FF883E"/>
<path d="M103.3 29.1V31.7H103V29.1H103.3Z" fill="#F4F0C3"/>
<path d="M103.9 30.4C103.9 30.2 103.9 30 103.9 29.8H104.2V30.2C104.2 30.1 104.3 30 104.4 29.9C104.5 29.8 104.6 29.8 104.7 29.8H104.8V30.1H104.7C104.6 30.1 104.5 30.1 104.4 30.2C104.3 30.3 104.3 30.4 104.3 30.5C104.3 30.6 104.3 30.6 104.3 30.7V31.7H104L103.9 30.4Z" fill="#F4F0C3"/>
<path d="M105.3 30.8C105.3 30.9 105.3 31 105.3 31.1C105.3 31.2 105.4 31.3 105.4 31.3C105.5 31.4 105.5 31.4 105.6 31.4C105.7 31.4 105.8 31.4 105.9 31.4C106.1 31.4 106.3 31.4 106.4 31.3V31.6C106.2 31.7 106 31.7 105.8 31.7C105.7 31.7 105.5 31.7 105.4 31.6C105.3 31.6 105.2 31.5 105.1 31.4C105 31.3 104.9 31.2 104.9 31.1C104.9 31 104.8 30.8 104.9 30.7C104.9 30.6 104.9 30.4 104.9 30.3C104.9 30.2 105 30.1 105.1 30C105.2 29.9 105.3 29.8 105.4 29.8C105.5 29.7 105.6 29.7 105.8 29.7C105.9 29.7 106 29.7 106.1 29.8C106.2 29.8 106.3 29.9 106.4 30C106.5 30.1 106.5 30.2 106.6 30.3C106.6 30.4 106.6 30.5 106.6 30.6C106.6 30.7 106.6 30.7 106.6 30.8H105.3ZM106.3 30.6C106.3 30.5 106.3 30.5 106.3 30.4C106.3 30.3 106.2 30.3 106.2 30.2C106.2 30.1 106.1 30.1 106 30.1C105.9 30.1 105.9 30.1 105.8 30.1C105.7 30.1 105.5 30.2 105.4 30.3C105.3 30.4 105.2 30.5 105.2 30.7H106.3V30.6Z" fill="#F4F0C3"/>
<path d="M107.1 28.9H107.5V31.7H107.2L107.1 28.9Z" fill="#F4F0C3"/>
<path d="M109.1 31.7V31.5C109 31.6 108.9 31.7 108.8 31.7C108.7 31.7 108.6 31.8 108.5 31.8C108.4 31.8 108.4 31.8 108.3 31.8C108.2 31.8 108.2 31.7 108.1 31.7C108 31.6 108 31.6 108 31.5C108 31.4 108 31.4 108 31.3C108 30.8 108.4 30.6 109.1 30.6C109.1 30.5 109.1 30.5 109.1 30.4C109.1 30.3 109.1 30.3 109 30.2L108.9 30.1C108.8 30.1 108.8 30.1 108.7 30.1C108.5 30.1 108.4 30.2 108.2 30.3L108.1 30.1C108.3 30 108.5 29.9 108.7 29.9C109.3 29.9 109.4 30.3 109.4 30.7V31.4C109.4 31.6 109.4 31.7 109.4 31.9L109.1 31.7ZM109.1 30.7C108.7 30.7 108.3 30.8 108.3 31.1V31.2C108.3 31.2 108.3 31.3 108.4 31.3L108.5 31.4H108.6C108.7 31.4 108.8 31.4 108.9 31.3C109 31.2 109 31.2 109.1 31.1V31V30.7Z" fill="#F4F0C3"/>
<path d="M109.9 30.3C109.9 30.1 109.9 29.9 109.9 29.8H110.2V30.1C110.3 30 110.4 29.9 110.5 29.8C110.6 29.7 110.7 29.7 110.9 29.7C111.2 29.7 111.6 29.9 111.6 30.5V31.6H111.3V30.5C111.3 30.2 111.2 29.9 110.8 29.9C110.7 29.9 110.6 29.9 110.5 30C110.4 30.1 110.4 30.1 110.3 30.2C110.3 30.3 110.3 30.3 110.3 30.4V31.6H110L109.9 30.3Z" fill="#F4F0C3"/>
<path d="M113.8 28.9V31.2C113.8 31.4 113.8 31.6 113.8 31.7H113.5V31.4C113.4 31.5 113.3 31.6 113.2 31.7C113.1 31.8 113 31.8 112.8 31.8C112.7 31.8 112.6 31.8 112.5 31.7C112.4 31.6 112.3 31.6 112.2 31.5C112.1 31.4 112.1 31.3 112 31.2C112 31.1 112 31 112 30.8C112 30.7 112 30.6 112 30.4C112 30.3 112.1 30.2 112.2 30.1C112.3 30 112.4 29.9 112.5 29.9C112.6 29.8 112.7 29.8 112.9 29.8C113 29.8 113.1 29.8 113.2 29.9C113.3 30 113.4 30 113.4 30.1V29H113.8V28.9ZM113.4 30.6C113.4 30.6 113.4 30.5 113.4 30.4C113.4 30.3 113.3 30.2 113.2 30.1C113.1 30 113 30 112.9 30C112.5 30 112.3 30.3 112.3 30.7C112.3 31.1 112.5 31.4 112.9 31.4C113 31.4 113.1 31.4 113.2 31.3C113.3 31.2 113.4 31.1 113.4 31C113.4 31 113.4 30.9 113.4 30.8V30.6Z" fill="#F4F0C3"/>
<path d="M39.5 82.7H0V109H39.5V82.7Z" fill="#FF0000"/>
<path d="M29.6 82.7H9.9V109H29.6V82.7Z" fill="white"/>
<path d="M19.7 87.6L18.3 90.2C18.1 90.5 17.9 90.5 17.6 90.3L16.6 89.8L17.4 93.8C17.5 94.5 17 94.5 16.8 94.2L15 92.2L14.7 93.2C14.7 93.3 14.6 93.4 14.6 93.4C14.5 93.4 14.4 93.5 14.4 93.4L12.1 93L12.7 95.1C12.8 95.6 12.9 95.8 12.6 95.9L11.8 96.3L15.6 99.4C15.7 99.5 15.7 99.5 15.8 99.6C15.8 99.7 15.8 99.8 15.8 99.9L15.5 101C16.8 100.9 18 100.6 19.3 100.5C19.4 100.5 19.6 100.7 19.6 100.8L19.4 104.8H20L19.9 100.8C19.9 100.7 20.1 100.5 20.2 100.5C21.5 100.6 22.7 100.9 24 101L23.7 99.9C23.7 99.8 23.7 99.7 23.7 99.6C23.7 99.5 23.8 99.4 23.9 99.4L27.7 96.3L26.9 95.9C26.6 95.8 26.6 95.6 26.8 95.1L27.4 93L25.2 93.5C25.1 93.5 25 93.5 25 93.5C24.9 93.5 24.9 93.4 24.8 93.3L24.5 92.3L22.7 94.3C22.4 94.6 21.9 94.6 22.1 93.9L22.9 89.9L21.9 90.4C21.6 90.6 21.3 90.6 21.2 90.3L19.7 87.6Z" fill="#FF0000"/>
<path d="M15.7 114.3C15.5 114.4 15.2 114.4 15 114.4C14.8 114.4 14.6 114.4 14.5 114.3C14.3 114.2 14.2 114.1 14.1 114C14 113.9 13.9 113.7 13.8 113.5C13.7 113.3 13.7 113.2 13.7 113C13.7 112.8 13.7 112.6 13.8 112.5C13.9 112.3 14 112.2 14.1 112C14.2 111.9 14.4 111.8 14.6 111.7C14.8 111.6 15 111.6 15.1 111.6C15.3 111.6 15.5 111.6 15.7 111.7L15.6 112C15.4 111.9 15.2 111.9 15.1 111.9C15 111.9 14.8 111.9 14.7 112C14.6 112.1 14.5 112.1 14.4 112.2C14.3 112.3 14.2 112.4 14.2 112.6C14.2 112.7 14.1 112.9 14.2 113C14.2 113.1 14.2 113.3 14.3 113.4C14.3 113.5 14.4 113.6 14.5 113.7C14.6 113.8 14.7 113.9 14.8 113.9C14.9 114 15.1 114 15.2 114C15.4 114 15.6 114 15.8 113.9L15.7 114.3Z" fill="#F4F0C3"/>
<path d="M17.2 114.3V114C17.1 114.1 17 114.2 16.9 114.2C16.8 114.3 16.7 114.3 16.6 114.3C16.5 114.3 16.4 114.3 16.4 114.3C16.3 114.3 16.3 114.2 16.2 114.2C16.1 114.1 16.1 114.1 16.1 114C16.1 113.9 16.1 113.9 16.1 113.8C16.1 113.3 16.5 113.1 17.2 113.1C17.2 113 17.2 113 17.2 112.9C17.2 112.8 17.2 112.8 17.1 112.8L17 112.7C16.9 112.7 16.9 112.7 16.8 112.7C16.6 112.7 16.5 112.7 16.3 112.8L16.2 112.6C16.4 112.5 16.6 112.4 16.8 112.4C16.9 112.4 17 112.4 17.1 112.4C17.2 112.4 17.3 112.5 17.4 112.6C17.5 112.7 17.5 112.8 17.6 112.9C17.6 113 17.6 113.1 17.6 113.2V113.9C17.6 114.1 17.6 114.2 17.6 114.4L17.2 114.3ZM17.1 113.3C16.7 113.3 16.3 113.4 16.3 113.7V113.8C16.3 113.8 16.3 113.9 16.4 113.9L16.5 114H16.6C16.7 114 16.8 114 16.9 113.9C17 113.8 17 113.8 17.1 113.7V113.6V113.3Z" fill="#F4F0C3"/>
<path d="M18 112.9C18 112.7 18 112.5 18 112.4H18.3V112.7C18.4 112.6 18.5 112.5 18.6 112.4C18.7 112.3 18.8 112.3 19 112.3C19.3 112.3 19.7 112.5 19.7 113.1V114.2H19.3V113.1C19.3 112.8 19.2 112.5 18.9 112.5C18.8 112.5 18.7 112.5 18.6 112.6C18.5 112.7 18.5 112.8 18.4 112.9C18.4 113 18.4 113 18.4 113.1V114.3H18.1L18 112.9Z" fill="#F4F0C3"/>
<path d="M21.3 114.3V114C21.2 114.1 21.1 114.2 21 114.2C20.9 114.3 20.8 114.3 20.7 114.3C20.6 114.3 20.5 114.3 20.5 114.3C20.4 114.3 20.4 114.2 20.3 114.2C20.2 114.1 20.2 114.1 20.2 114C20.2 113.9 20.2 113.9 20.2 113.8C20.2 113.3 20.6 113.1 21.3 113.1C21.3 113 21.3 113 21.3 112.9C21.3 112.8 21.3 112.8 21.2 112.8L21.1 112.7C21 112.7 21 112.7 20.9 112.7C20.7 112.7 20.6 112.7 20.4 112.8L20.3 112.6C20.5 112.5 20.7 112.4 20.9 112.4C21.5 112.4 21.6 112.8 21.6 113.2V113.9C21.6 114.1 21.6 114.2 21.6 114.4L21.3 114.3ZM21.2 113.3C20.8 113.3 20.4 113.4 20.4 113.7V113.8C20.4 113.8 20.4 113.9 20.5 113.9L20.6 114H20.7C20.8 114 20.9 114 21 113.9C21.1 113.8 21.1 113.8 21.2 113.7V113.6V113.3Z" fill="#F4F0C3"/>
<path d="M23.8 111.5V113.8C23.8 114 23.8 114.2 23.8 114.3H23.5V114C23.4 114.1 23.3 114.2 23.2 114.3C23.1 114.4 23 114.4 22.8 114.4C22.7 114.4 22.6 114.4 22.5 114.3C22.4 114.2 22.3 114.2 22.2 114.1C22.1 114 22.1 113.9 22 113.8C22 113.7 22 113.6 22 113.4C22 113.3 22 113.2 22 113C22 112.9 22.1 112.8 22.2 112.7C22.3 112.6 22.4 112.5 22.5 112.5C22.6 112.4 22.7 112.4 22.9 112.4C23 112.4 23.1 112.4 23.2 112.5C23.3 112.6 23.4 112.6 23.4 112.7V111.6H23.8V111.5ZM23.4 113.2V113.1C23.4 113 23.3 112.9 23.2 112.8C23.1 112.7 23 112.7 22.9 112.7C22.5 112.7 22.3 113 22.3 113.4C22.3 113.8 22.5 114.1 22.9 114.1C23 114.1 23.1 114.1 23.2 114C23.3 113.9 23.4 113.8 23.4 113.7C23.4 113.7 23.4 113.6 23.4 113.5V113.2Z" fill="#F4F0C3"/>
<path d="M25.4 114.3V114C25.3 114.1 25.2 114.2 25.1 114.2C25 114.3 24.9 114.3 24.8 114.3C24.7 114.3 24.6 114.3 24.6 114.3C24.5 114.3 24.5 114.2 24.4 114.2C24.3 114.1 24.3 114.1 24.3 114C24.3 113.9 24.3 113.9 24.3 113.8C24.3 113.3 24.7 113.1 25.4 113.1C25.4 113 25.4 113 25.4 112.9C25.4 112.8 25.4 112.8 25.3 112.8L25.2 112.7C25.1 112.7 25.1 112.7 25 112.7C24.8 112.7 24.6 112.7 24.5 112.8L24.4 112.6C24.6 112.5 24.8 112.4 25 112.4C25.6 112.4 25.7 112.8 25.7 113.2V113.9C25.7 114.1 25.7 114.2 25.7 114.4L25.4 114.3ZM25.4 113.3C25 113.3 24.6 113.4 24.6 113.7V113.8C24.6 113.8 24.6 113.9 24.7 113.9L24.8 114H24.9C25 114 25.1 114 25.2 113.9C25.3 113.8 25.3 113.8 25.4 113.7V113.6V113.3Z" fill="#F4F0C3"/>
<path d="M77.1 82.4H50.8V108.7H77.1V82.4Z" fill="#D52B1E"/>
<path d="M72.2 93.1H55.8V98H72.2V93.1Z" fill="white"/>
<path d="M66.4 87.3H61.5V103.7H66.4V87.3Z" fill="white"/>
<path d="M54.7 113.9C54.9 114 55.1 114.1 55.3 114.1C55.6 114.1 55.9 113.9 55.9 113.6C55.9 113.3 55.8 113.2 55.4 113.1C55 113 54.7 112.7 54.7 112.3C54.7 112.2 54.7 112.1 54.8 112C54.8 111.9 54.9 111.8 55 111.8C55.1 111.7 55.2 111.7 55.3 111.6C55.4 111.6 55.5 111.6 55.6 111.6C55.8 111.6 56 111.6 56.2 111.7L56 112C55.8 111.9 55.7 111.9 55.5 111.9C55.1 111.9 55 112.1 55 112.3C55 112.5 55.2 112.7 55.5 112.8C55.9 112.9 56.2 113.2 56.2 113.6C56.2 114 55.9 114.4 55.3 114.4C55.1 114.4 54.8 114.3 54.6 114.2L54.7 113.9Z" fill="#F4F0C3"/>
<path d="M56.8 112.4L57.1 113.4C57.2 113.6 57.2 113.8 57.2 114C57.2 113.8 57.3 113.6 57.4 113.4L57.7 112.4H58L58.3 113.4C58.4 113.6 58.4 113.8 58.5 114C58.5 113.8 58.6 113.6 58.6 113.4L58.9 112.4H59.2L58.6 114.3H58.3L58 113.4C57.9 113.2 57.9 113 57.8 112.8C57.8 113 57.7 113.2 57.6 113.4L57.3 114.3H57L56.4 112.4H56.8Z" fill="#F4F0C3"/>
<path d="M59.9 111.9C59.9 112 59.9 112 59.8 112.1C59.8 112.1 59.8 112.1 59.7 112.1H59.6C59.5 112.1 59.5 112.1 59.5 112L59.4 111.9C59.4 111.8 59.4 111.8 59.5 111.7C59.5 111.7 59.6 111.6 59.7 111.6H59.8C59.8 111.6 59.8 111.6 59.9 111.6C59.9 111.8 59.9 111.8 59.9 111.9C59.9 111.8 59.9 111.9 59.9 111.9ZM59.5 114.3V112.4H59.8V114.3H59.5Z" fill="#F4F0C3"/>
<path d="M60.9 111.9V112.4H61.4V112.7H60.9V113.7C60.9 113.9 61 114.1 61.2 114.1H61.4V114.4C61.3 114.4 61.2 114.4 61.1 114.4C61 114.4 61 114.4 60.9 114.4C60.8 114.4 60.8 114.3 60.7 114.3C60.6 114.2 60.5 114 60.6 113.8V112.8H60.3V112.5H60.6V112L60.9 111.9Z" fill="#F4F0C3"/>
<path d="M61.5 114.1L62.4 113L62.7 112.7H61.7V112.4H63.1V112.7L62.3 113.8C62.2 113.9 62.1 114 62 114.1H63.1V114.4H61.5V114.1Z" fill="#F4F0C3"/>
<path d="M63.6 113.4C63.6 113.5 63.6 113.6 63.6 113.7C63.6 113.8 63.7 113.9 63.7 113.9C63.8 114 63.8 114 63.9 114C64 114 64.1 114 64.2 114C64.4 114 64.6 114 64.7 113.9L64.8 114.2C64.6 114.3 64.4 114.3 64.2 114.3C64.1 114.3 63.9 114.3 63.8 114.2C63.7 114.2 63.6 114.1 63.5 114C63.4 113.9 63.3 113.8 63.3 113.7C63.3 113.6 63.2 113.4 63.3 113.3C63.3 113.2 63.3 113 63.3 112.9C63.3 112.8 63.4 112.7 63.5 112.6C63.6 112.5 63.7 112.4 63.8 112.4C63.9 112.3 64 112.3 64.2 112.3C64.3 112.3 64.4 112.3 64.5 112.4C64.6 112.4 64.7 112.5 64.8 112.6C64.9 112.7 64.9 112.8 65 112.9C65 113 65 113.1 65 113.2C65 113.3 65 113.3 65 113.4H63.6ZM64.6 113.2C64.6 113 64.5 112.6 64.1 112.6C64 112.6 63.8 112.7 63.7 112.8C63.6 112.9 63.5 113 63.5 113.2H64.6Z" fill="#F4F0C3"/>
<path d="M65.4 113C65.4 112.8 65.4 112.6 65.4 112.4H65.7V112.8C65.7 112.7 65.8 112.6 65.9 112.5C66 112.4 66.1 112.4 66.2 112.4H66.3V112.7H66.2C66.1 112.7 66 112.8 65.9 112.8C65.8 112.8 65.8 113 65.8 113.1C65.8 113.2 65.8 113.2 65.8 113.3V114.3H65.5L65.4 113Z" fill="#F4F0C3"/>
<path d="M66.7 111.5H67.1V114.3H66.7V111.5Z" fill="#F4F0C3"/>
<path d="M68.7 114.3V114C68.6 114.1 68.5 114.2 68.4 114.2C68.3 114.3 68.2 114.3 68.1 114.3C68 114.3 67.9 114.3 67.9 114.3C67.8 114.3 67.8 114.2 67.7 114.2C67.6 114.1 67.6 114.1 67.6 114C67.6 113.9 67.6 113.9 67.6 113.8C67.6 113.3 68 113.1 68.8 113.1C68.8 113 68.8 113 68.8 112.9C68.8 112.8 68.7 112.8 68.7 112.7C68.7 112.7 68.6 112.6 68.5 112.6C68.4 112.6 68.4 112.6 68.3 112.6C68.1 112.6 68 112.6 67.8 112.7L67.7 112.5C67.9 112.4 68.1 112.3 68.3 112.3C68.9 112.3 69 112.7 69 113.1V113.8C69 114 69 114.1 69 114.3H68.7ZM68.7 113.3C68.3 113.3 67.9 113.4 67.9 113.7V113.8C67.9 113.8 67.9 113.9 68 113.9L68.1 114H68.2C68.3 114 68.4 114 68.5 113.9C68.6 113.8 68.6 113.8 68.7 113.7V113.6V113.3Z" fill="#F4F0C3"/>
<path d="M69.5 112.9C69.5 112.7 69.5 112.5 69.5 112.4H69.8V112.7C69.9 112.6 70 112.5 70.1 112.4C70.2 112.3 70.3 112.3 70.5 112.3C70.8 112.3 71.2 112.5 71.2 113.1V114.2H70.9V113.1C70.9 112.8 70.8 112.5 70.5 112.5C70.4 112.5 70.3 112.5 70.2 112.6C70.1 112.7 70.1 112.8 70 112.9C70 113 70 113 70 113.1V114.3H69.7V112.9H69.5Z" fill="#F4F0C3"/>
<path d="M73.4 111.5V113.8C73.4 114 73.4 114.1 73.4 114.3H73.1V114C73 114.1 72.9 114.2 72.8 114.3C72.7 114.4 72.6 114.4 72.4 114.4C72.3 114.4 72.2 114.4 72 114.3C71.9 114.2 71.8 114.2 71.7 114.1C71.6 114 71.6 113.9 71.5 113.8C71.5 113.7 71.5 113.6 71.5 113.4C71.5 113.3 71.5 113.2 71.5 113C71.5 112.9 71.6 112.8 71.7 112.7C71.8 112.6 71.9 112.5 72 112.5C72.1 112.4 72.2 112.4 72.4 112.4C72.5 112.4 72.6 112.4 72.7 112.5C72.8 112.6 72.9 112.6 73 112.7V111.6H73.4V111.5ZM73 113.2V113.1C73 113 72.9 112.9 72.8 112.8C72.7 112.7 72.6 112.7 72.5 112.7C72.1 112.7 71.9 113 71.9 113.4C71.9 113.8 72.1 114.1 72.5 114.1C72.6 114.1 72.7 114.1 72.8 114C72.9 113.9 73 113.8 73 113.7C73 113.7 73 113.6 73 113.5V113.2Z" fill="#F4F0C3"/>
<path d="M171.9 82.3H132.4V108.6H171.9V82.3Z" fill="#C60C30"/>
<path d="M171.9 93.6H149.8V82.3H146V93.6H132.4V97.4H146V108.7H149.8V97.3H171.9V93.6Z" fill="white"/>
<path d="M144.7 111.7C144.9 111.7 145.2 111.7 145.4 111.7C145.8 111.7 146.2 111.8 146.5 112C146.6 112.1 146.7 112.3 146.8 112.5C146.9 112.7 146.9 112.9 146.9 113C146.9 113.4 146.8 113.7 146.5 114C146.2 114.3 145.7 114.4 145.3 114.4C145.1 114.4 144.9 114.4 144.7 114.4V111.7ZM145 114C145.1 114 145.2 114 145.3 114C145.5 114 145.6 114 145.8 114C145.9 114 146.1 113.9 146.2 113.8C146.3 113.7 146.4 113.6 146.4 113.4C146.4 113.3 146.5 113.1 146.4 112.9C146.4 112.8 146.4 112.6 146.3 112.5C146.2 112.4 146.2 112.3 146.1 112.2C146 112.1 145.9 112 145.7 112C145.6 112 145.4 111.9 145.3 111.9C145.2 111.9 145 111.9 144.9 111.9V114H145Z" fill="#F4F0C3"/>
<path d="M147.5 113.4C147.5 113.5 147.5 113.6 147.5 113.7C147.5 113.8 147.6 113.9 147.6 113.9C147.7 114 147.7 114 147.8 114C147.9 114 148 114 148.1 114C148.3 114 148.5 114 148.6 113.9L148.7 114.2C148.5 114.3 148.3 114.3 148.1 114.3C148 114.3 147.8 114.3 147.7 114.2C147.6 114.2 147.5 114.1 147.4 114C147.3 113.9 147.2 113.8 147.2 113.7C147.2 113.6 147.1 113.4 147.2 113.3C147.2 113.2 147.2 113 147.2 112.9C147.2 112.8 147.3 112.7 147.4 112.6C147.5 112.5 147.6 112.4 147.7 112.4C147.8 112.3 147.9 112.3 148.1 112.3C148.2 112.3 148.3 112.3 148.4 112.4C148.5 112.4 148.6 112.5 148.7 112.6C148.8 112.7 148.8 112.8 148.9 112.9C148.9 113 148.9 113.1 148.9 113.2C148.9 113.3 148.9 113.3 148.9 113.4H147.5ZM148.5 113.2C148.5 113 148.4 112.6 148 112.6C147.9 112.6 147.7 112.7 147.6 112.8C147.5 112.9 147.4 113 147.4 113.2H148.5Z" fill="#F4F0C3"/>
<path d="M149.3 112.9C149.3 112.7 149.3 112.5 149.3 112.4H149.6V112.7C149.7 112.6 149.8 112.5 149.9 112.4C150 112.3 150.1 112.3 150.3 112.3C150.6 112.3 151 112.5 151 113.1V114.2H150.7V113.1C150.7 112.8 150.6 112.5 150.3 112.5C150.2 112.5 150.1 112.5 150 112.6C149.9 112.7 149.9 112.8 149.8 112.9C149.8 113 149.8 113 149.8 113.1V114.3H149.5L149.3 112.9Z" fill="#F4F0C3"/>
<path d="M151.5 112.9C151.5 112.7 151.5 112.5 151.5 112.4H151.8V112.7C151.9 112.6 151.9 112.5 152.1 112.4C152.2 112.3 152.3 112.3 152.4 112.3C152.5 112.3 152.6 112.3 152.7 112.4C152.8 112.5 152.9 112.6 152.9 112.7C153 112.6 153 112.5 153.1 112.4C153.2 112.3 153.4 112.3 153.5 112.3C153.8 112.3 154.1 112.5 154.1 113.1V114.2H153.8V113.1C153.8 112.7 153.7 112.5 153.4 112.5C153.3 112.5 153.2 112.5 153.1 112.6C153 112.7 153 112.7 152.9 112.8C152.9 112.9 152.9 112.9 152.9 113V114.2H152.6V113C152.6 112.7 152.5 112.5 152.2 112.5C152.1 112.5 152 112.5 151.9 112.6C151.8 112.7 151.8 112.7 151.7 112.8C151.7 112.9 151.7 112.9 151.7 113V114.2H151.3V112.9H151.5Z" fill="#F4F0C3"/>
<path d="M155.8 114.3V114C155.7 114.1 155.6 114.2 155.5 114.2C155.4 114.3 155.3 114.3 155.2 114.3C155.1 114.3 155 114.3 155 114.3C154.9 114.3 154.9 114.2 154.8 114.2C154.7 114.1 154.7 114.1 154.7 114C154.7 113.9 154.7 113.9 154.7 113.8C154.7 113.3 155.1 113.1 155.8 113.1C155.8 113 155.8 113 155.8 112.9C155.8 112.8 155.7 112.8 155.7 112.8L155.6 112.7C155.5 112.7 155.5 112.7 155.4 112.7C155.2 112.7 155.1 112.7 154.9 112.8L154.8 112.6C155 112.5 155.2 112.4 155.4 112.4C156 112.4 156.1 112.8 156.1 113.2V113.9C156.1 114.1 156.1 114.2 156.1 114.4L155.8 114.3ZM155.8 113.3C155.4 113.3 155 113.4 155 113.7V113.8C155 113.8 155 113.9 155.1 113.9L155.2 114H155.3C155.4 114 155.5 114 155.6 113.9C155.7 113.8 155.7 113.8 155.8 113.7V113.6V113.3Z" fill="#F4F0C3"/>
<path d="M156.7 113C156.7 112.8 156.7 112.6 156.7 112.4H157V112.8C157 112.7 157.1 112.6 157.2 112.5C157.3 112.4 157.4 112.4 157.5 112.4H157.6V112.7H157.5C157.4 112.7 157.3 112.8 157.2 112.8C157.1 112.9 157.1 113 157.1 113.1C157.1 113.2 157.1 113.2 157.1 113.3V114.3H156.8L156.7 113Z" fill="#F4F0C3"/>
<path d="M158.3 113.3L158.5 113.1L159.1 112.4H159.5L158.8 113.2L159.6 114.3H159.2L158.5 113.4L158.3 113.6V114.3H158V111.5H158.4L158.3 113.3Z" fill="#F4F0C3"/>
<path d="M128 82.6H88.6V108.9H128V82.6Z" fill="#ED2939"/>
<path d="M128 91.4H88.6V100.2H128V91.4Z" fill="white"/>
<path d="M103.3 113.5L103 114.3H102.6L103.5 111.6H103.9L104.8 114.3H104.4L104.1 113.5H103.3ZM104.2 113.2L103.9 112.4C103.8 112.2 103.8 112.1 103.8 111.9C103.8 112.1 103.7 112.2 103.7 112.4L103.4 113.2H104.2Z" fill="#F4F0C3"/>
<path d="M106.8 113.8C106.8 114 106.8 114.2 106.8 114.3H106.5V114C106.4 114.1 106.3 114.2 106.2 114.3C106.1 114.4 106 114.4 105.8 114.4C105.5 114.4 105.1 114.2 105.1 113.6V112.5H105.4V113.6C105.4 114 105.5 114.2 105.8 114.2C105.9 114.2 106 114.2 106.1 114.1C106.2 114 106.2 114 106.3 113.9C106.3 113.8 106.3 113.8 106.3 113.7V112.5H106.6L106.8 113.8Z" fill="#F4F0C3"/>
<path d="M107.4 114C107.5 114.1 107.7 114.1 107.8 114.1C108.1 114.1 108.2 114 108.2 113.8C108.2 113.6 108.1 113.5 107.9 113.5C107.6 113.4 107.4 113.2 107.4 113C107.4 112.9 107.4 112.8 107.5 112.8C107.5 112.7 107.6 112.7 107.6 112.6C107.7 112.5 107.7 112.5 107.8 112.5C107.9 112.5 108 112.5 108 112.5C108.2 112.5 108.3 112.5 108.5 112.6L108.4 112.9C108.3 112.8 108.1 112.8 108 112.8C107.8 112.8 107.7 112.9 107.7 113.1C107.7 113.3 107.8 113.3 108.1 113.4C108.4 113.5 108.6 113.7 108.6 114C108.6 114.3 108.3 114.6 107.9 114.6C107.7 114.6 107.5 114.6 107.4 114.5V114Z" fill="#F4F0C3"/>
<path d="M109.4 111.9V112.4H109.9V112.7H109.4V113.7C109.4 113.9 109.5 114.1 109.7 114.1H109.9V114.4C109.8 114.4 109.7 114.4 109.6 114.4C109.5 114.4 109.5 114.4 109.4 114.4C109.3 114.4 109.3 114.3 109.2 114.3C109.1 114.2 109 114 109.1 113.8V112.8H108.8V112.5H109.1V112L109.4 111.9Z" fill="#F4F0C3"/>
<path d="M110.3 113C110.3 112.8 110.3 112.6 110.3 112.4H110.6V112.8C110.6 112.7 110.7 112.6 110.8 112.5C110.9 112.4 111 112.4 111.1 112.4H111.2V112.7H111.1C111 112.7 110.9 112.8 110.8 112.8C110.7 112.9 110.7 113 110.6 113.1C110.6 113.2 110.6 113.2 110.6 113.3V114.3H110.3V113Z" fill="#F4F0C3"/>
<path d="M112 111.9C112 112 112 112 111.9 112.1C111.9 112.1 111.9 112.1 111.8 112.1H111.7C111.6 112.1 111.6 112.1 111.6 112L111.5 111.9C111.5 111.8 111.5 111.8 111.6 111.7C111.6 111.7 111.7 111.6 111.8 111.6H111.9H112C111.9 111.8 111.9 111.8 112 111.9C112 111.8 112 111.9 112 111.9ZM111.6 114.3V112.4H111.9V114.3H111.6Z" fill="#F4F0C3"/>
<path d="M113.6 114.3V114C113.5 114.1 113.4 114.2 113.3 114.2C113.2 114.3 113.1 114.3 113 114.3C112.9 114.3 112.8 114.3 112.8 114.3C112.7 114.3 112.7 114.2 112.6 114.2C112.5 114.1 112.5 114.1 112.5 114C112.5 113.9 112.5 113.9 112.5 113.8C112.5 113.3 112.9 113.1 113.7 113.1C113.7 113 113.7 113 113.7 112.9C113.7 112.8 113.6 112.8 113.6 112.7C113.6 112.7 113.5 112.6 113.4 112.6C113.3 112.6 113.3 112.6 113.2 112.6C113 112.6 112.9 112.6 112.7 112.7L112.6 112.5C112.8 112.4 113 112.3 113.2 112.3C113.8 112.3 113.9 112.7 113.9 113.1V113.8C113.9 114 113.9 114.1 113.9 114.3H113.6ZM113.6 113.3C113.2 113.3 112.8 113.4 112.8 113.7V113.8C112.8 113.8 112.8 113.9 112.9 113.9L113 114H113.1C113.2 114 113.3 114 113.4 113.9C113.5 113.8 113.5 113.8 113.6 113.7V113.6V113.3Z" fill="#F4F0C3"/>
</g>
<defs>
<clipPath id="clip0_2_39">
<rect width="216" height="114.3" fill="white"/>
</clipPath>
</defs>
</svg>
