<svg width="255" height="81" viewBox="0 0 255 81" fill="none" xmlns="http://www.w3.org/2000/svg">
<path d="M93.4212 15.7444H33.2345C32.6003 15.7444 32.0861 16.2581 32.0861 16.8919V61.8469C32.0861 62.4806 32.6003 62.9944 33.2345 62.9944H93.4212C94.0554 62.9944 94.5696 62.4806 94.5696 61.8469V16.8919C94.5696 16.2581 94.0554 15.7444 93.4212 15.7444Z" fill="#FCCD63"/>
<path d="M36.5781 53.3756V22.4438C36.5781 22.1528 36.6938 21.8739 36.8997 21.6681C37.1055 21.4624 37.3847 21.3469 37.6758 21.3469H46.1195C48.7825 21.189 51.4218 21.9256 53.6175 23.4394C54.5374 24.187 55.2643 25.1442 55.7374 26.2306C56.2105 27.317 56.4159 28.501 56.3364 29.6831C56.38 30.7395 56.2095 31.7937 55.8351 32.7826C55.4607 33.7714 54.8903 34.6745 54.1579 35.4375C53.9984 35.5933 53.88 35.7861 53.8132 35.9987C53.7464 36.2113 53.7334 36.4372 53.7752 36.6561C53.817 36.875 53.9124 37.0801 54.0528 37.2532C54.1933 37.4263 54.3744 37.562 54.5801 37.6481C55.6657 38.0786 56.6367 38.7544 57.4172 39.6225C58.7016 41.1802 59.3634 43.158 59.2748 45.1744C59.3383 46.954 58.8805 48.7135 57.9576 50.2369C57.0618 51.6435 55.7689 52.7533 54.2424 53.4263C52.4432 54.2072 50.4954 54.5872 48.5344 54.54H37.7265C37.5723 54.5474 37.4182 54.5223 37.2744 54.4661C37.1306 54.41 37.0002 54.3242 36.8918 54.2143C36.7835 54.1044 36.6995 53.9729 36.6455 53.8284C36.5914 53.6839 36.5685 53.5296 36.5781 53.3756ZM43.0629 34.8131H44.5659C46.0014 34.9081 47.4276 34.5221 48.6189 33.7163C49.0865 33.3393 49.4576 32.8564 49.7013 32.3077C49.945 31.7589 50.0545 31.1601 50.0205 30.5606C50.0568 29.9724 49.9497 29.3841 49.7085 28.8463C49.4673 28.3084 49.0992 27.837 48.6358 27.4725C47.425 26.7002 45.9993 26.3337 44.5659 26.4263H43.0629V34.8131ZM43.0629 48.3131C43.0629 48.604 43.1786 48.883 43.3844 49.0887C43.5903 49.2944 43.8695 49.41 44.1606 49.41H46.2715C47.8811 49.5223 49.4859 49.1332 50.8649 48.2963C51.3848 47.9086 51.7983 47.396 52.067 46.8059C52.3356 46.2159 52.4508 45.5676 52.4017 44.9213C52.429 44.2742 52.3006 43.63 52.0274 43.0428C51.7541 42.4555 51.3439 41.9424 50.8311 41.5463C49.4792 40.6699 47.8793 40.2554 46.2715 40.365H44.1606C43.8695 40.365 43.5903 40.4806 43.3844 40.6863C43.1786 40.892 43.0629 41.171 43.0629 41.4619V48.3131Z" fill="#23494A"/>
<path d="M61.5546 52.9706L73.9669 22.0388C74.0487 21.833 74.1908 21.6568 74.3747 21.5334C74.5585 21.4099 74.7755 21.3449 74.997 21.3469H79.5397C79.7584 21.3482 79.9716 21.4148 80.1521 21.5381C80.3327 21.6614 80.4722 21.8357 80.553 22.0388L92.999 52.9706C93.0655 53.1378 93.0898 53.3187 93.0698 53.4975C93.0498 53.6763 92.9861 53.8474 92.8843 53.9958C92.7825 54.1442 92.6458 54.2653 92.4862 54.3484C92.3265 54.4315 92.1489 54.4741 91.9689 54.4725H87.3755C87.152 54.4732 86.9336 54.4057 86.7495 54.2791C86.5654 54.1524 86.4244 53.9726 86.3454 53.7638L84.0487 47.6381C83.9676 47.4306 83.8261 47.2521 83.6425 47.1258C83.4588 46.9994 83.2415 46.931 83.0185 46.9294H71.5351C71.3116 46.9287 71.0932 46.9962 70.9091 47.1228C70.725 47.2495 70.584 47.4292 70.505 47.6381L68.1914 53.7638C68.1103 53.9713 67.9688 54.1498 67.7852 54.2761C67.6015 54.4025 67.3842 54.4709 67.1612 54.4725H62.5679C62.3893 54.4714 62.2137 54.4267 62.0563 54.3425C61.8989 54.2582 61.7644 54.1368 61.6646 53.9888C61.5647 53.8408 61.5025 53.6707 61.4834 53.4933C61.4642 53.3159 61.4887 53.1365 61.5546 52.9706ZM74.5748 41.1581H79.9619C80.1405 41.157 80.3161 41.1124 80.4735 41.0281C80.6309 40.9438 80.7654 40.8224 80.8652 40.6744C80.965 40.5264 81.0272 40.3564 81.0464 40.1789C81.0655 40.0015 81.0411 39.8221 80.9752 39.6563L78.2901 32.7206C78.2125 32.51 78.0721 32.3282 77.8879 32.1998C77.7037 32.0714 77.4845 32.0026 77.2599 32.0026C77.0353 32.0026 76.8161 32.0714 76.6319 32.1998C76.4477 32.3282 76.3074 32.51 76.2298 32.7206L73.5447 39.6563C73.4632 39.8265 73.4271 40.0149 73.4398 40.2032C73.4524 40.3914 73.5135 40.5733 73.6171 40.7311C73.7207 40.8889 73.8632 41.0173 74.031 41.1039C74.1988 41.1906 74.3861 41.2325 74.5748 41.2256V41.1581Z" fill="#23494A"/>
<path d="M101.325 8.99435V71.4319" stroke="#FCCD63" stroke-width="2" stroke-miterlimit="10" stroke-linecap="round"/>
<path d="M107.64 38.2387V24.3169H110.325C111.462 24.2737 112.578 24.6256 113.483 25.3125C113.861 25.6284 114.159 26.0276 114.356 26.4786C114.552 26.9296 114.641 27.4201 114.615 27.9113C114.666 28.5925 114.492 29.2717 114.12 29.8447C113.748 30.4178 113.198 30.853 112.555 31.0837C113.473 31.163 114.334 31.5633 114.986 32.2144C115.58 32.8744 115.889 33.7413 115.848 34.6275C115.862 35.327 115.68 36.0165 115.324 36.6187C114.964 37.1776 114.447 37.6179 113.838 37.8844C113.101 38.193 112.307 38.3425 111.508 38.3231L107.64 38.2387ZM108.552 30.7294H110.241C111.173 30.7879 112.097 30.5259 112.859 29.9869C113.168 29.74 113.413 29.4227 113.575 29.0617C113.737 28.7006 113.809 28.3062 113.787 27.9113C113.812 27.5111 113.741 27.1109 113.579 26.744C113.417 26.377 113.17 26.054 112.859 25.8019C112.097 25.2629 111.173 25.0008 110.241 25.0594H108.552V30.7294ZM108.552 37.4794H111.322C112.267 37.5395 113.204 37.2712 113.973 36.72C114.292 36.4582 114.545 36.1243 114.709 35.7457C114.874 35.3672 114.946 34.9549 114.919 34.5431C114.938 34.1298 114.862 33.7176 114.698 33.3376C114.535 32.9576 114.287 32.6197 113.973 32.3494C113.207 31.7896 112.269 31.515 111.322 31.5731H108.552V37.4794Z" fill="#FCCD63"/>
<path d="M126.96 38.5088C126.019 38.5155 125.087 38.3259 124.224 37.9519C123.387 37.5831 122.63 37.0559 121.995 36.3994C121.348 35.7367 120.832 34.9581 120.475 34.1044C119.755 32.2945 119.755 30.278 120.475 28.4681C120.832 27.6144 121.348 26.8358 121.995 26.1731C122.63 25.5166 123.387 24.9894 124.224 24.6206C125.089 24.253 126.019 24.0636 126.96 24.0636C127.9 24.0636 128.83 24.253 129.695 24.6206C130.537 24.989 131.3 25.5161 131.941 26.1731C132.571 26.8393 133.069 27.6179 133.411 28.4681C134.131 30.278 134.131 32.2945 133.411 34.1044C133.059 34.9573 132.549 35.736 131.908 36.3994C131.266 37.0564 130.503 37.5835 129.662 37.9519C128.809 38.3213 127.889 38.5109 126.96 38.5088ZM126.96 37.6144C127.774 37.627 128.581 37.4599 129.324 37.125C130.047 36.8038 130.701 36.3453 131.249 35.775C132.357 34.5442 132.96 32.9415 132.938 31.2863C132.961 30.0581 132.625 28.8499 131.971 27.8098C131.317 26.7696 130.374 25.9428 129.256 25.4306C128.511 25.1039 127.706 24.9371 126.892 24.9413C126.084 24.937 125.284 25.1038 124.545 25.4306C123.078 26.0973 121.927 27.3075 121.336 28.8056C121.016 29.5932 120.855 30.4363 120.863 31.2863C120.875 32.1356 121.059 32.9738 121.404 33.75C121.691 34.5043 122.127 35.193 122.687 35.775C123.229 36.3526 123.884 36.8122 124.612 37.125C125.349 37.4596 126.151 37.6267 126.96 37.6144Z" fill="#FCCD63"/>
<path d="M139.575 38.2387V24.3169H140.503V30.8475H148.694V24.3169H149.623V38.2387H148.694V31.6575H140.503V38.2387H139.575Z" fill="#FCCD63"/>
<path d="M162.22 38.5088C161.28 38.5155 160.348 38.3259 159.485 37.9519C158.648 37.5831 157.891 37.0559 157.256 36.3994C156.609 35.7367 156.093 34.9581 155.736 34.1044C155.016 32.2945 155.016 30.278 155.736 28.4681C156.093 27.6144 156.609 26.8358 157.256 26.1731C157.891 25.5166 158.648 24.9894 159.485 24.6206C160.35 24.253 161.28 24.0636 162.22 24.0636C163.161 24.0636 164.091 24.253 164.956 24.6206C165.798 24.989 166.56 25.5161 167.202 26.1731C167.844 26.8365 168.354 27.6152 168.705 28.4681C169.425 30.278 169.425 32.2945 168.705 34.1044C168.349 34.9587 167.833 35.7375 167.185 36.3994C166.544 37.0564 165.781 37.5835 164.939 37.9519C164.081 38.3236 163.156 38.5132 162.22 38.5088ZM162.22 37.6144C163.035 37.627 163.842 37.4599 164.585 37.125C165.308 36.8038 165.962 36.3453 166.51 35.775C167.064 35.1887 167.5 34.5011 167.793 33.75C168.107 32.9665 168.268 32.1302 168.266 31.2863C168.266 30.437 168.106 29.5954 167.793 28.8056C167.202 27.3075 166.052 26.0973 164.585 25.4306C163.84 25.1039 163.034 24.9371 162.22 24.9413C161.412 24.937 160.612 25.1038 159.873 25.4306C158.406 26.0973 157.256 27.3075 156.665 28.8056C156.344 29.5932 156.184 30.4363 156.192 31.2863C156.182 32.1309 156.343 32.9689 156.665 33.75C156.952 34.5043 157.388 35.193 157.948 35.775C158.49 36.3526 159.145 36.8122 159.873 37.125C160.61 37.4596 161.411 37.6267 162.22 37.6144Z" fill="#FCCD63"/>
<path d="M106.931 58.4887L112.386 44.5669H113.247L118.702 58.4887H117.705L115.881 53.73H109.768L107.944 58.4887H106.931ZM110.072 52.92H115.561L112.808 45.765L110.072 52.92Z" fill="#FCCD63"/>
<path d="M123.835 58.4887V44.5669H130.692V45.3769H124.291L124.764 45.0562V51.8062L124.291 51.0469H130.303V51.8569H124.291L124.764 51.0975V58.4381L123.835 58.4887Z" fill="#FCCD63"/>
<path d="M135.994 58.4887V44.5669H142.851V45.3769H136.45L136.923 45.0562V51.8062L136.45 51.0469H142.462V51.8569H136.45L136.923 51.0975V58.4381L135.994 58.4887Z" fill="#FCCD63"/>
<path d="M148.153 58.4887V44.5669H149.082V58.4887H148.153Z" fill="#FCCD63"/>
<path d="M155.466 58.4887V44.5669H156.394V57.6619H162.423V58.4887H155.466Z" fill="#FCCD63"/>
<path d="M167.557 58.4887V44.5669H168.469V58.4887H167.557Z" fill="#FCCD63"/>
<path d="M173.603 58.4887L179.007 44.5669H179.868L185.323 58.4887H184.326L182.502 53.73H176.372L174.548 58.4887H173.603ZM176.744 52.92H182.232L179.479 45.765L176.744 52.92Z" fill="#FCCD63"/>
<path d="M192.871 58.4887V45.4275H188.43V44.5669H198.225V45.4275H193.783V58.4887H192.871Z" fill="#FCCD63"/>
<path d="M203.358 58.4887V44.5669H210.113V45.3769H204.338V51.0975H210.063V51.9075H204.338V57.6619H210.265V58.4887H203.358Z" fill="#FCCD63"/>
<path d="M219.148 58.7587C218.489 58.7732 217.834 58.6526 217.223 58.4044C216.724 58.1995 216.262 57.9145 215.855 57.5606C215.536 57.2764 215.247 56.9597 214.994 56.6156C214.791 56.3119 214.656 56.0756 214.572 55.9237L215.163 55.3162C215.461 55.8853 215.855 56.399 216.328 56.835C216.939 57.3604 217.683 57.7076 218.478 57.8386C219.273 57.9696 220.089 57.8792 220.837 57.5775C221.305 57.3823 221.712 57.0644 222.015 56.6573C222.318 56.2502 222.505 55.7689 222.557 55.2643C222.609 54.7598 222.524 54.2505 222.31 53.7904C222.096 53.3303 221.762 52.9363 221.343 52.65C220.966 52.3785 220.558 52.1519 220.128 51.975C219.672 51.7894 219.216 51.6037 218.726 51.435L217.679 50.9962C217.299 50.8278 216.941 50.6124 216.615 50.355C216.274 50.0894 215.993 49.7561 215.787 49.3762C215.567 48.9366 215.457 48.4502 215.467 47.9587C215.474 46.998 215.856 46.078 216.53 45.3937C216.864 45.0484 217.267 44.778 217.713 44.6006C218.701 44.218 219.797 44.218 220.786 44.6006C221.217 44.7835 221.616 45.0342 221.968 45.3431C222.264 45.5983 222.515 45.9005 222.711 46.2375L222.171 46.8112C222.004 46.5171 221.793 46.2497 221.546 46.0181C221.253 45.7534 220.916 45.542 220.55 45.3937C220.129 45.2333 219.682 45.1532 219.232 45.1575C218.681 45.1407 218.136 45.2812 217.662 45.5625C217.248 45.8252 216.91 46.1917 216.682 46.6256C216.457 47.0395 216.34 47.5042 216.345 47.9756C216.329 48.3647 216.423 48.7505 216.615 49.0894C216.785 49.3915 217.022 49.6511 217.307 49.8487C217.608 50.0538 217.931 50.2237 218.27 50.355C218.608 50.5069 218.945 50.625 219.283 50.7431C219.621 50.8612 220.296 51.1312 220.803 51.3506C221.278 51.5606 221.726 51.8269 222.137 52.1437C222.54 52.442 222.87 52.8288 223.1 53.2744C223.357 53.7984 223.479 54.3786 223.454 54.9619C223.484 55.6737 223.297 56.3779 222.917 56.9808C222.537 57.5836 221.982 58.0566 221.327 58.3369C220.64 58.6366 219.896 58.7807 219.148 58.7587Z" fill="#FCCD63"/>
</svg>
