<svg width="192" height="66" viewBox="0 0 192 66" fill="none" xmlns="http://www.w3.org/2000/svg">
<g clip-path="url(#clip0_2_3)">
<path d="M61.9 8.20001H1.70001C1.10001 8.20001 0.600006 8.70001 0.600006 9.30001V54.3C0.600006 54.9 1.10001 55.4 1.70001 55.4H61.9C62.5 55.4 63 54.9 63 54.3V9.30001C63 8.70001 62.5 8.20001 61.9 8.20001Z" fill="#FCCD63"/>
<path d="M5 45.9V14.9C5 14.6 5.1 14.3 5.3 14.1C5.5 13.9 5.8 13.8 6.1 13.8H14.5C17.2 13.6 19.8 14.4 22 15.9C22.9 16.6 23.6 17.6 24.1 18.7C24.6 19.8 24.8 21 24.7 22.2C24.7 23.3 24.6 24.3 24.2 25.3C23.8 26.3 23.3 27.2 22.5 28C22.3 28.2 22.2 28.3 22.2 28.6C22.1 28.8 22.1 29 22.2 29.3C22.2 29.5 22.3 29.7 22.5 29.9C22.6 30.1 22.8 30.2 23 30.3C24.1 30.7 25.1 31.4 25.8 32.3C27.1 33.9 27.7 35.8 27.7 37.9C27.8 39.7 27.3 41.4 26.4 43C25.5 44.4 24.2 45.5 22.7 46.2C20.9 46.7 19 47.1 17 47H6.2C6 47 5.9 47 5.7 46.9C5.6 46.8 5.4 46.8 5.3 46.6C5.2 46.5 5.1 46.4 5.1 46.2C5 46.2 5 46 5 45.9ZM11.5 27.3H13C14.4 27.4 15.9 27 17.1 26.2C17.6 25.8 17.9 25.3 18.2 24.8C18.4 24.3 18.6 23.7 18.5 23.1C18.5 22.5 18.4 21.9 18.2 21.4C18 20.9 17.6 20.4 17.1 20C15.9 19.2 14.5 18.9 13 19H11.5V27.3V27.3ZM11.5 40.8C11.5 41.1 11.6 41.4 11.8 41.6C12 41.8 12.3 41.9 12.6 41.9H14.7C16.3 42 17.9 41.6 19.3 40.8C19.8 40.4 20.2 39.9 20.5 39.3C20.8 38.7 20.9 38.1 20.8 37.4C20.8 36.8 20.7 36.1 20.4 35.5C20.1 34.9 19.7 34.4 19.2 34C17.8 33.1 16.2 32.7 14.6 32.8H12.5C12.2 32.8 11.9 32.9 11.7 33.1C11.5 33.3 11.4 33.6 11.4 33.9V40.8H11.5V40.8Z" fill="#23494A"/>
<path d="M30 45.5L42.4 14.6C42.5 14.4 42.6 14.2 42.8 14.1C43 14 43.2 13.9 43.4 13.9H48C48.2 13.9 48.4 14 48.6 14.1C48.8 14.2 48.9 14.4 49 14.6L61.4 45.5C61.5 45.7 61.5 45.8 61.5 46C61.5 46.2 61.4 46.3 61.3 46.5C61.2 46.7 61.1 46.8 60.9 46.9C60.7 47 60.6 47 60.4 47H55.8C55.6 47 55.4 46.9 55.2 46.8C55 46.7 54.9 46.5 54.8 46.3L52.5 40.2C52.4 40 52.3 39.8 52.1 39.7C51.9 39.6 51.7 39.5 51.5 39.5H40C39.8 39.5 39.6 39.6 39.4 39.7C39.2 39.8 39.1 40 39 40.2L36.7 46.3C36.6 46.5 36.5 46.7 36.3 46.8C36.1 46.9 35.9 47 35.7 47H31C30.8 47 30.6 47 30.5 46.9C30.3 46.8 30.2 46.7 30.1 46.5C30 46.3 30 46.2 29.9 46C29.9 45.8 29.9 45.6 30 45.5ZM43 33.6H48.4C48.6 33.6 48.8 33.6 48.9 33.5C49.1 33.4 49.2 33.3 49.3 33.1C49.4 33 49.5 32.8 49.5 32.6C49.5 32.4 49.5 32.2 49.4 32.1L46.7 25.2C46.6 25 46.5 24.8 46.3 24.7C46.1 24.6 45.9 24.5 45.7 24.5C45.5 24.5 45.3 24.6 45.1 24.7C44.9 24.8 44.8 25 44.7 25.2L42 32.1C41.9 32.3 41.9 32.5 41.9 32.6C41.9 32.8 42 33 42.1 33.1C42.2 33.3 42.3 33.4 42.5 33.5C42.7 33.7 42.8 33.7 43 33.6Z" fill="#23494A"/>
<path d="M69.8 1.5V63.9" stroke="#FCCD63" stroke-width="2" stroke-miterlimit="10" stroke-linecap="round"/>
<path d="M76.1 30.7V16.8H78.8C79.9 16.8 81.1 17.1 82 17.8C82.4 18.1 82.7 18.5 82.9 19C83.1 19.5 83.2 19.9 83.2 20.4C83.3 21.1 83.1 21.8 82.7 22.3C82.3 22.9 81.8 23.3 81.1 23.5C82 23.6 82.9 24 83.5 24.6C84.1 25.3 84.4 26.1 84.4 27C84.4 27.7 84.2 28.4 83.9 29C83.5 29.6 83 30 82.4 30.3C81.7 30.6 80.9 30.8 80.1 30.7H76.1ZM77 23.2H78.7C79.6 23.3 80.6 23 81.3 22.5C81.6 22.3 81.9 21.9 82 21.6C82.2 21.2 82.2 20.8 82.2 20.4C82.2 20 82.2 19.6 82 19.2C81.8 18.8 81.6 18.5 81.3 18.3C80.5 17.8 79.6 17.5 78.7 17.6H77V23.2ZM77 30H79.8C80.7 30.1 81.7 29.8 82.5 29.2C82.8 28.9 83.1 28.6 83.2 28.2C83.4 27.8 83.4 27.4 83.4 27C83.4 26.6 83.3 26.2 83.2 25.8C83 25.4 82.8 25.1 82.5 24.8C81.7 24.2 80.8 24 79.8 24H77V30Z" fill="#FCCD63"/>
<path d="M95.4 31C94.5 31 93.5 30.8 92.7 30.4C91.9 30 91.1 29.5 90.5 28.8C89.9 28.1 89.3 27.4 89 26.5C88.3 24.7 88.3 22.7 89 20.9C89.4 20 89.9 19.3 90.5 18.6C91.1 17.9 91.9 17.4 92.7 17C93.6 16.6 94.5 16.4 95.4 16.4C96.3 16.4 97.3 16.6 98.1 17C98.9 17.4 99.7 17.9 100.3 18.6C100.9 19.3 101.4 20 101.8 20.9C102.5 22.7 102.5 24.7 101.8 26.5C101.4 27.4 100.9 28.1 100.3 28.8C99.7 29.5 98.9 30 98.1 30.4C97.3 30.8 96.3 31 95.4 31ZM95.4 30.1C96.2 30.1 97 29.9 97.8 29.6C98.5 29.3 99.2 28.8 99.7 28.3C100.8 27.1 101.4 25.5 101.4 23.8C101.4 22.6 101.1 21.4 100.4 20.3C99.7 19.3 98.8 18.4 97.7 17.9C97 17.6 96.2 17.4 95.3 17.4C94.5 17.4 93.7 17.6 93 17.9C91.5 18.6 90.4 19.8 89.8 21.3C89.5 22.1 89.3 22.9 89.3 23.8C89.3 24.6 89.5 25.5 89.8 26.3C90.1 27.1 90.5 27.7 91.1 28.3C91.6 28.9 92.3 29.3 93 29.6C93.8 29.9 94.6 30.1 95.4 30.1Z" fill="#FCCD63"/>
<path d="M108 30.7V16.8H108.9V23.3H117.1V16.8H118V30.7H117.1V24.1H109V30.7C109 30.7 108 30.7 108 30.7Z" fill="#FCCD63"/>
<path d="M130.7 31C129.8 31 128.8 30.8 128 30.4C127.2 30 126.4 29.5 125.8 28.8C125.2 28.1 124.6 27.4 124.3 26.5C123.6 24.7 123.6 22.7 124.3 20.9C124.7 20 125.2 19.3 125.8 18.6C126.4 17.9 127.2 17.4 128 17C128.9 16.6 129.8 16.4 130.7 16.4C131.6 16.4 132.6 16.6 133.4 17C134.2 17.4 135 17.9 135.6 18.6C136.2 19.3 136.8 20 137.1 20.9C137.8 22.7 137.8 24.7 137.1 26.5C136.7 27.4 136.2 28.1 135.6 28.8C135 29.5 134.2 30 133.4 30.4C132.5 30.8 131.6 31 130.7 31ZM130.7 30.1C131.5 30.1 132.3 29.9 133.1 29.6C133.8 29.3 134.5 28.8 135 28.3C135.6 27.7 136 27 136.3 26.3C136.6 25.5 136.8 24.7 136.8 23.8C136.8 23 136.6 22.1 136.3 21.3C135.7 19.8 134.6 18.6 133.1 17.9C132.4 17.6 131.5 17.4 130.7 17.4C129.9 17.4 129.1 17.6 128.4 17.9C126.9 18.6 125.8 19.8 125.2 21.3C124.9 22.1 124.7 22.9 124.7 23.8C124.7 24.6 124.9 25.5 125.2 26.3C125.5 27.1 125.9 27.7 126.5 28.3C127 28.9 127.7 29.3 128.4 29.6C129.1 29.9 129.9 30.1 130.7 30.1Z" fill="#FCCD63"/>
<path d="M75.4 51L80.8 37H81.7L87.2 51H86.2L84.4 46.2H78.3L76.4 51H75.4ZM78.5 45.4H84L81.2 38.2L78.5 45.4Z" fill="#FCCD63"/>
<path d="M92.3 51V37H99.2V37.8H92.8L93.3 37.5V44.3L92.8 43.5H98.8V44.3H92.8L93.3 43.5V50.8L92.3 51Z" fill="#FCCD63"/>
<path d="M104.5 51V37H111.4V37.8H105L105.5 37.5V44.3L105 43.5H111V44.3H105L105.5 43.5V50.8L104.5 51Z" fill="#FCCD63"/>
<path d="M116.6 51V37H117.5V51H116.6Z" fill="#FCCD63"/>
<path d="M123.9 51V37H124.8V50.1H130.8V51H123.9Z" fill="#FCCD63"/>
<path d="M136 51V37H136.9V51H136Z" fill="#FCCD63"/>
<path d="M142.1 51L147.5 37.1H148.4L153.9 51H152.9L151.1 46.2H145L143 51H142.1ZM145.2 45.4H150.7L147.9 38.2L145.2 45.4Z" fill="#FCCD63"/>
<path d="M161.3 51V37.9H156.9V37H166.7V37.9H162.3V51H161.3Z" fill="#FCCD63"/>
<path d="M171.8 51V37H178.6V37.8H172.8V43.5H178.5V44.3H172.8V50.1H178.7V51H171.8Z" fill="#FCCD63"/>
<path d="M187.6 51.2C186.9 51.2 186.3 51.1 185.7 50.8C185.2 50.6 184.7 50.3 184.3 50C184 49.7 183.7 49.4 183.4 49.1C183.2 48.8 183.1 48.6 183 48.4L183.6 47.8C183.9 48.4 184.3 48.9 184.8 49.3C185.4 49.8 186.2 50.2 186.9 50.3C187.6 50.4 188.5 50.3 189.3 50C189.8 49.8 190.2 49.5 190.5 49.1C190.8 48.7 191 48.2 191 47.7C191.1 47.2 191 46.7 190.8 46.2C190.6 45.7 190.3 45.3 189.8 45.1C189.4 44.8 189 44.6 188.6 44.4C188.1 44.2 187.7 44 187.2 43.9L186.2 43.5C185.8 43.3 185.5 43.1 185.1 42.9C184.8 42.6 184.5 42.3 184.3 41.9C184.1 41.5 184 41 184 40.5C184 39.5 184.4 38.6 185.1 37.9C185.4 37.6 185.8 37.3 186.3 37.1C187.3 36.7 188.4 36.7 189.4 37.1C189.8 37.3 190.2 37.5 190.6 37.8C190.9 38.1 191.1 38.4 191.3 38.7L190.8 39.3C190.6 39 190.4 38.7 190.2 38.5C189.9 38.2 189.6 38 189.2 37.9C188.8 37.7 188.3 37.7 187.9 37.7C187.3 37.7 186.8 37.8 186.3 38.1C185.9 38.4 185.5 38.7 185.3 39.2C185.1 39.6 185 40.1 185 40.6C185 41 185.1 41.4 185.3 41.7C185.5 42 185.7 42.3 186 42.5C186.3 42.7 186.6 42.9 187 43C187.3 43.2 187.7 43.3 188 43.4C188.3 43.5 189 43.8 189.5 44C190 44.2 190.4 44.5 190.8 44.8C191.2 45.1 191.5 45.5 191.8 45.9C192.1 46.4 192.2 47 192.2 47.6C192.2 48.3 192 49 191.7 49.6C191.3 50.2 190.8 50.7 190.1 51C189.1 51.1 188.4 51.3 187.6 51.2Z" fill="#FCCD63"/>
</g>
<defs>
<clipPath id="clip0_2_3">
<rect width="191.9" height="66" fill="white"/>
</clipPath>
</defs>
</svg>
