<svg width="293" height="51" viewBox="0 0 293 51" fill="none" xmlns="http://www.w3.org/2000/svg">
<g clip-path="url(#clip0_2_22)">
<path d="M168.8 25C166.2 27.6 165 31.4 165 36.3C165 40.4 165.8 43.6 167.5 46C168.2 47.1 169.2 48 170.4 48.7C171.6 49.3 172.9 49.6 174.2 49.6C175.8 49.6 177.3 49.2 178.7 48.3C180.1 47.3 181.3 46 182.1 44.5H182.3L182.1 48.8H189.2V22.3C186.1 21.5 182.9 21.1 179.8 21C175 21.1 171.4 22.4 168.8 25ZM182 36.8C181.2 38.5 180.2 40 179 41.4C178.6 41.9 178.1 42.3 177.6 42.6C177 42.9 176.4 43.1 175.8 43.1C175.2 43.1 174.7 42.9 174.2 42.6C173.7 42.3 173.4 41.8 173.2 41.2C172.5 39.5 172.1 37.7 172.2 35.9C172.2 33.1 172.7 31 173.8 29.5C174.4 28.8 175.1 28.2 176 27.8C176.8 27.4 177.8 27.3 178.7 27.3C179.9 27.3 181 27.5 182.1 27.8L182 36.8Z" fill="#FCFBFA"/>
<path d="M224.6 10.5H222.9C222 10.5 221.2 10.9 220.6 11.6C220 12.2 219.7 13.1 219.7 14C219.7 14.9 220 15.7 220.6 16.4C221.2 17 222 17.4 222.9 17.5H224.6C225.1 17.5 225.5 17.5 226 17.3C226.4 17.1 226.8 16.9 227.2 16.6C227.5 16.3 227.8 15.9 228 15.5C228.2 15.1 228.3 14.6 228.3 14.1C228.3 13.6 228.2 13.2 228 12.7C227.8 12.3 227.5 11.9 227.2 11.6C226.9 11.3 226.5 11 226 10.9C225.5 10.6 225 10.5 224.6 10.5Z" fill="#FCFBFA"/>
<path d="M154.8 43.2C152.7 43.3 150.6 42.6 149 41.2C148.3 40.4 147.8 39.5 147.4 38.6C147.1 37.6 146.9 36.6 147 35.6C146.9 33.5 147.6 31.4 149 29.8C149.7 29.1 150.5 28.5 151.4 28.1C152.3 27.7 153.3 27.5 154.3 27.6C155.2 27.6 156.1 27.8 157 28C157.9 28.2 158.8 28.5 159.7 28.9L161.1 22.6C160 22.1 158.9 21.8 157.8 21.6C156.5 21.3 155.1 21.1 153.7 21.1C151.1 21 148.6 21.7 146.3 23C144.2 24.2 142.5 26.1 141.4 28.3C140.2 30.7 139.6 33.4 139.7 36.1C139.7 40.4 140.9 43.8 143.4 46.2C145.9 48.6 149.4 49.8 154 49.8C156.5 49.8 159.1 49.4 161.4 48.4L160.3 42.4C158.5 42.9 156.6 43.2 154.8 43.2Z" fill="#FCFBFA"/>
<path d="M248.8 21.1C247 21.1 245.2 21.5 243.6 22.4C242 23.4 240.7 24.8 239.7 26.5V21.8H232.4V48.9H239.9V33.2C240.5 31.6 241.5 30.3 242.8 29.2C243.9 28.2 245.3 27.7 246.8 27.6C247.3 27.6 247.9 27.7 248.4 27.9C248.9 28.1 249.4 28.4 249.7 28.8C250.4 29.7 250.8 30.9 250.7 32.1V49H258.2V31C258.3 29.7 258.1 28.4 257.7 27.1C257.3 25.9 256.6 24.7 255.7 23.8C254.8 22.9 253.7 22.2 252.5 21.7C251.3 21.2 250.1 21 248.8 21.1Z" fill="#FCFBFA"/>
<path d="M289.8 27.8C288.7 25.7 287 24 284.9 22.9C282.7 21.7 280.2 21.1 277.6 21.1C275 21 272.5 21.7 270.3 22.9C268.2 24.1 266.5 25.8 265.4 27.9C264.2 30.2 263.6 32.8 263.7 35.4C263.6 38 264.2 40.7 265.5 43C266.6 45.1 268.3 46.8 270.4 48C272.6 49.2 275.2 49.8 277.7 49.8C280.2 49.9 282.7 49.2 284.9 48C287 46.8 288.7 45 289.8 42.9C291 40.5 291.6 37.9 291.6 35.3C291.6 32.6 291 30.1 289.8 27.8ZM282.2 41.1C281.7 41.8 281 42.4 280.2 42.7C279.4 43 278.5 43.3 277.7 43.2C276.8 43.2 275.9 43 275.1 42.7C274.3 42.3 273.6 41.8 273 41.1C271.8 39.4 271.2 37.4 271.3 35.3C271.2 33.3 271.8 31.3 273 29.6C273.5 28.9 274.3 28.3 275.1 28C275.9 27.6 276.8 27.4 277.7 27.5C278.6 27.5 279.4 27.6 280.2 28C281 28.4 281.7 28.9 282.2 29.6C283.4 31.2 284.1 33.2 284 35.3C284.1 37.4 283.5 39.4 282.2 41.1Z" fill="#FCFBFA"/>
<path d="M211.5 34.3C210.3 33.6 209.1 33.1 207.8 32.6L205.9 31.9C204.9 31.6 203.9 31.2 203 30.7C202.7 30.5 202.5 30.3 202.4 30C202.3 29.7 202.2 29.4 202.2 29.1C202.2 28.8 202.3 28.4 202.5 28.1C202.7 27.8 202.9 27.6 203.2 27.4C204.1 27 205 26.8 206 26.8C207.2 26.8 208.4 27 209.6 27.4C210.8 27.7 212 28.2 213.1 28.8L214.1 22.5C211.4 21.5 208.6 21 205.8 21C202.9 20.9 200.1 21.7 197.7 23.3C196.7 24 195.9 25 195.4 26.1C194.9 27.2 194.6 28.4 194.7 29.7C194.6 31.2 195.1 32.6 195.9 33.9C196.6 34.9 197.5 35.7 198.5 36.3C199.7 36.9 200.9 37.4 202.2 37.9L203.6 38.4C204.7 38.8 205.8 39.2 206.8 39.8C207.1 40 207.3 40.2 207.4 40.4C207.5 40.7 207.6 41 207.6 41.3C207.6 41.7 207.5 42.1 207.3 42.5C207.1 42.9 206.8 43.1 206.4 43.3C205.5 43.7 204.4 44 203.4 43.9C202 43.9 200.6 43.6 199.3 43.2C197.9 42.8 196.6 42.2 195.3 41.4L194.6 47.7C195.9 48.4 197.3 48.8 198.7 49.1C200.4 49.5 202 49.6 203.7 49.6C206.6 49.7 209.5 49 212 47.4C213 46.7 213.9 45.7 214.4 44.6C214.9 43.5 215.2 42.2 215.1 41C215.2 39.5 214.8 38.1 214 36.8C213.4 35.8 212.5 34.9 211.5 34.3Z" fill="#FCFBFA"/>
<path d="M227 21.8H219.5V28.2V49H227V21.8Z" fill="#FCFBFA"/>
<path d="M91.1 21.1C89.4 21.1 87.7 21.5 86.2 22.3C84.7 23.1 83.4 24.4 82.4 25.8V14.2C82.4 13.2 82 12.3 81.3 11.5C80.6 10.8 79.6 10.4 78.7 10.4C77.7 10.4 76.8 10.8 76.1 11.5C75.4 12.2 75 13.2 75 14.2V48.9H82.5V32.5C83.2 31.1 84.2 29.9 85.4 29C86.5 28.1 87.8 27.7 89.1 27.7C89.6 27.7 90.2 27.8 90.7 28C91.2 28.2 91.6 28.5 92 28.9C92.8 29.8 93.2 31 93.1 32.2V49.1H100.6V31.1C100.7 29.8 100.5 28.5 100.1 27.2C99.7 26 99 24.8 98.1 23.9C97.2 23 96.1 22.3 94.9 21.8C93.7 21.2 92.4 21 91.1 21.1Z" fill="#FFD600"/>
<path d="M27.2 21.1C26 21.1 24.8 21.3 23.7 21.7C24.4 20.4 24.3 19.3 24.6 17.9C24.8 16.3 23.1 14.8 22.1 14.3C22.5 14.8 22.7 15.3 22.9 15.9C23 16.2 23 16.5 22.9 16.7C22.8 17 22.6 17.2 22.3 17.3C21.7 15.6 20.9 14 19.9 12.5C17.8 8.89999 13.9 5.89999 9.90002 3.99999C6.70002 2.69999 3.40002 1.79999 -0.0999756 1.39999C1.30002 2.29999 2.60002 3.19999 3.90002 4.29999C6.10002 6.09999 7.60003 9.09999 8.60003 12.2C9.20003 14.4 9.20002 16.7 8.70002 18.9L14.4 23.2C13.3 23.3 12.2 23.2 11.1 22.9C10.2 22.5 9.20002 22 8.40002 21.5C8.70002 22.1 8.70003 24.9 10.8 26.4C12.6 27.5 14.4 28.6 16.3 29.5C17 30.2 18 31.5 18 34.8C18 37.2 17.5 42.8 17.3 44.5C18.6 40.4 19.3 36.2 19.4 31.9C19.6 28.1 18.5 24.5 16.2 18.9C14.2 14.4 11.8 9.99999 9.10003 5.89999C11.4 8.49999 13.5 11.3 15.4 14.2C17.5 17.2 19 20.5 20 24L21.4 29.4C21.6 29.1 21.9 28.9 22.2 28.7C23.1 27.9 24.2 27.5 25.4 27.5C26.1 27.5 26.7 27.7 27.3 28C27.9 28.3 28.3 28.8 28.6 29.4C29.5 31 29.9 32.9 29.8 34.7C29.8 37.5 29.2 39.6 28 41C27.4 41.7 26.6 42.3 25.8 42.7C24.9 43.1 24 43.2 23.1 43.2C22.9 43.2 22.7 43.2 22.4 43.2C22 43.1 21.7 43.1 21.3 43.1C20.8 43 20.4 43.1 19.9 43.2C19.5 43.3 19 43.6 18.7 43.9C18.3 44.2 18.1 44.6 17.9 45C17.7 45.4 17.6 45.9 17.6 46.3C17.6 46.8 17.7 47.2 17.9 47.7C18.1 48.1 18.3 48.5 18.7 48.8C19 49.1 19.4 49.4 19.9 49.5C20.3 49.7 20.8 49.7 21.3 49.7C21.3 49.7 21.4 49.8 22.4 49.8C27.2 49.8 31 48.5 33.5 45.9C36.1 43.3 37.4 39.5 37.4 34.5C37.4 30.3 36.5 27.1 34.7 24.8C33.9 23.7 32.7 22.7 31.5 22.1C30 21.3 28.6 21 27.2 21.1Z" fill="url(#paint0_linear_2_22)"/>
<path d="M132.2 27.8C131.1 25.7 129.4 24 127.3 22.9C125.1 21.7 122.6 21.1 120 21.1C117.4 21 114.9 21.7 112.7 22.9C110.6 24.1 108.9 25.8 107.8 27.9L107.6 28.3C107.3 28.9 107.1 29.5 107.1 30.2C107.1 31.1 107.4 32 108 32.6C108.6 33.3 109.4 33.7 110.3 33.9C111.2 34 112.1 33.8 112.8 33.4C113.6 32.9 114.1 32.2 114.4 31.3C114.7 30.7 115 30.2 115.4 29.7C115.9 29 116.7 28.5 117.4 28.1C118.2 27.7 119.1 27.6 119.9 27.6C120.8 27.6 121.6 27.7 122.4 28.1C123.2 28.5 123.9 29 124.4 29.7C124.9 30.3 125.3 31 125.6 31.7C125.9 32.5 126.5 33.2 127.3 33.6C128.1 34 129 34.2 129.8 34C130.7 33.8 131.4 33.3 132 32.7C132.6 32 132.8 31.1 132.8 30.2C132.8 29.6 132.6 28.9 132.3 28.4C132.4 28.2 132.3 28 132.2 27.8Z" fill="#FFD600"/>
<path d="M129.2 36.9C128.5 36.9 127.8 37.1 127.2 37.5C126.6 37.9 126.1 38.4 125.8 39.1C125.5 39.8 125.1 40.5 124.7 41.1C124.2 41.8 123.5 42.4 122.7 42.7C121.9 43.1 121 43.3 120.1 43.2C119.2 43.2 118.3 43 117.5 42.7C116.7 42.3 116 41.8 115.4 41.1C115 40.6 114.7 40 114.4 39.3C114.1 38.5 113.5 37.7 112.8 37.3C112 36.8 111.1 36.7 110.3 36.8C109.4 36.9 108.6 37.4 108.1 38.1C107.5 38.8 107.2 39.6 107.2 40.5C107.2 41.1 107.4 41.8 107.7 42.3C107.8 42.5 107.9 42.7 108 42.9C109.1 45 110.8 46.7 112.9 47.9C115.1 49.1 117.6 49.7 120.2 49.7C122.7 49.8 125.2 49.2 127.5 48C129.6 46.8 131.3 45 132.4 42.9C132.5 42.7 132.6 42.6 132.7 42.4C133 41.9 133.1 41.3 133.1 40.7C133.1 40.2 133 39.7 132.8 39.3C132.6 38.9 132.3 38.4 132 38.1C131.7 37.8 131.2 37.5 130.8 37.3C130.1 37 129.6 36.9 129.2 36.9Z" fill="#FFD600"/>
<path d="M67.7 27.8C66.6 25.7 64.9 24 62.8 22.9C60.6 21.7 58.1 21.1 55.5 21.1C52.9 21 50.4 21.7 48.2 22.9C46.1 24.1 44.4 25.8 43.3 27.9L43.1 28.3C42.8 28.9 42.6 29.5 42.6 30.2C42.6 31.1 42.9 32 43.5 32.6C44.1 33.3 44.9 33.7 45.8 33.9C46.7 34 47.6 33.8 48.3 33.4C49.1 32.9 49.6 32.2 49.9 31.3C50.2 30.7 50.5 30.2 50.9 29.7C51.4 29 52.2 28.4 53 28.1C53.8 27.7 54.7 27.5 55.6 27.6C56.5 27.6 57.4 27.7 58.1 28.1C58.9 28.5 59.6 29 60.1 29.7C60.6 30.3 61 31 61.2 31.7C61.5 32.5 62.2 33.1 62.9 33.5C63.7 33.9 64.5 34 65.4 33.8C66.2 33.6 67 33.2 67.5 32.5C68 31.8 68.3 31 68.4 30.2C68.4 29.6 68.2 28.9 67.9 28.4C67.9 28.1 67.8 28 67.7 27.8Z" fill="#FFD600"/>
<path d="M64.7 36.9C64 36.9 63.3001 37.1 62.7001 37.5C62.1 37.9 61.6 38.4 61.3 39.1C61 39.8 60.6 40.5 60.2001 41.1C59.7001 41.8 59 42.4 58.2001 42.7C57.4001 43.1 56.5001 43.3 55.7001 43.2C54.8001 43.2 53.9 43 53.1 42.7C52.3 42.3 51.6 41.8 51 41.1C50.6 40.6 50.3 40 50 39.3C49.7 38.5 49.1001 37.8 48.4001 37.3C47.7001 36.8 46.8001 36.7 45.9001 36.8C45.0001 36.9 44.2001 37.4 43.7001 38.1C43.1001 38.8 42.8 39.6 42.8 40.5C42.8 41.1 43 41.8 43.3 42.3L43.6 42.9C44.7 45 46.4 46.7 48.5 47.9C50.7 49.1 53.3 49.7 55.8 49.7C58.3 49.8 60.8 49.2 63 48C65.1 46.8 66.8001 45 67.9001 42.9C68.0001 42.7 68.1 42.6 68.1 42.4C68.4 41.9 68.5 41.3 68.5 40.7C68.5 40.2 68.4 39.7 68.2 39.3C68 38.9 67.7001 38.4 67.4001 38.1C67.1001 37.8 66.6 37.5 66.2 37.3C65.7 37 65.2 36.9 64.7 36.9Z" fill="#FFD600"/>
</g>
<defs>
<linearGradient id="paint0_linear_2_22" x1="-6.40907" y1="7.52839" x2="33.4164" y2="42.5737" gradientUnits="userSpaceOnUse">
<stop stop-color="#FF6841"/>
<stop offset="1" stop-color="#FFD600"/>
</linearGradient>
<clipPath id="clip0_2_22">
<rect width="292.9" height="51" fill="white"/>
</clipPath>
</defs>
</svg>
