<svg width="447" height="343" viewBox="0 0 447 343" fill="none" xmlns="http://www.w3.org/2000/svg">
<path d="M42.7907 15.0122C43.1272 20.8043 44.1438 26.5367 45.8196 32.0912C45.9653 32.5204 46.0787 32.9011 46.184 33.2736C46.4027 33.7757 46.5079 34.0834 46.5079 34.0834C46.5207 34.3235 46.5207 34.5641 46.5079 34.8041C46.6618 35.6706 46.6132 36.1322 46.4512 36.3266C46.2893 38.0353 45.7224 39.3229 43.9326 34.213L43.2766 32.9334C41.6163 29.5889 37.3078 22.0009 28.0754 9.56216C26.5204 8.12878 25.5567 7.1813 24.9088 6.55774C24.5669 6.18847 24.1958 5.84725 23.7993 5.53737C23.6087 5.44332 23.4075 5.37263 23.2 5.32682V5.32682C22.9246 5.24584 22.5683 5.14866 22.0824 4.99479C23.0137 8.01541 23.8884 10.8093 24.6334 13.2144C27.0063 20.8672 28.0673 24.2927 28.2535 25.6694C28.7719 29.5889 27.5085 28.6333 25.2246 26.9003C24.5572 26.3036 23.7579 25.8735 22.8922 25.6451H22.6817L22.5197 25.5641L17.7577 23.1914C20.4788 36.3266 20.0577 36.4804 16.5753 37.7681C15.5184 38.1358 14.5201 38.654 13.6111 39.3067L38.4336 75.5541L43.1065 82.3889L36.6276 77.1818L3.68218 50.4822C3.01809 57.147 6.81636 66.8809 12.3963 76.8579C20.9728 92.1796 33.6958 107.931 41.1304 114.369L51.5291 123.366L39.7213 116.328C36.5275 114.369 33.4847 112.174 30.6183 109.761C28.5694 108.141 26.4394 106.384 23.9046 104.618L10.2664 97.8645C14.8649 105.579 20.27 112.784 26.3908 119.357C33.0641 126.564 40.4177 132.962 48.6217 139.602L64.074 152.057L47.2206 141.522L21.5721 125.56C36.7328 150.883 56.3964 160.318 76.1248 169.776C83.3407 173.234 90.5647 176.7 97.5862 180.927L102.049 183.616L96.8574 183.179C92.5564 182.862 88.2911 182.171 84.1101 181.114C79.2509 179.806 74.5312 178.027 70.0184 175.801V175.801L50.1523 166.99C55.8214 173.623 64.7866 183.835 73.0473 192.443C79.5262 199.181 85.4706 204.89 88.9369 207.02C92.4851 209.177 96.1545 211.13 99.9268 212.867C103.691 214.626 107.555 216.162 111.5 217.466C138.841 226.326 160.521 225.159 178.5 224.188C196.479 223.216 210.757 222.455 223.593 231.808L225.634 233.298L223.205 233.962C211.867 237.015 190.591 237.129 169.705 235.647C151.037 234.327 132.629 231.719 121.923 228.804C128.07 233.12 134.192 235.89 140.372 238.692C145.542 240.915 150.573 243.452 155.435 246.288C160.132 249.13 162.505 252.224 165.153 255.698C169.057 260.775 173.617 266.719 187.611 273.862C199.119 279.733 216.264 285.248 233.247 288.228C247.889 290.795 262.402 291.467 272.995 288.884L289.468 284.835L273.781 291.16C263.139 295.435 258.005 295.452 252.247 295.476C249.218 295.439 246.191 295.601 243.184 295.962C272.728 313.551 306.054 306.263 341.656 298.472L349.536 296.763L371.402 292.058L350.184 299.096C339.21 302.732 339.186 302.772 336.505 307.631C335.987 308.571 335.379 309.68 334.65 310.911L332.496 317.454C335.533 316.223 338.352 315.243 341.186 314.255C346.906 312.376 352.491 310.109 357.902 307.469L359.562 306.659L359.659 308.506L359.74 310.125C360.161 318.531 360.485 324.953 362.615 334.89C363.724 332.998 364.966 331.187 366.332 329.472C366.057 328.524 365.766 326.233 366.389 320.378L366.13 315.705C365.936 312.15 365.709 307.931 365.725 307.607V307.081L366.122 306.74L381.744 293.476L381.858 293.378L381.979 293.314C398.784 284.819 405.538 278.867 404.915 273.627C404.38 269.222 398.63 264.938 389.227 259.812C391.529 262.53 393.279 265.671 394.378 269.06C394.814 270.228 395.008 271.472 394.95 272.717C394.892 273.962 394.582 275.182 394.04 276.305C393.497 277.427 392.733 278.427 391.793 279.246C390.853 280.065 389.757 280.685 388.571 281.069C384.789 282.632 379.323 283.078 372.447 282.203L371.491 282.081L371.394 281.126C371.086 278.267 371.013 275.182 370.924 271.926C370.698 263.018 370.438 252.799 365.417 242.894C361.433 235.031 355.918 230.107 350.313 225.079C345.535 220.811 340.684 216.478 336.546 210.202C333.628 205.581 331.07 200.743 328.892 195.731C325.507 188.313 321.822 180.433 314.509 171.307C310.215 165.833 305.477 160.722 300.344 156.026C296.522 152.521 292.281 149.502 287.719 147.037C296.279 161.97 301.486 172.181 304.726 182.312C308.192 193.196 309.294 203.902 309.642 220.171L309.804 227.354L307.301 220.616C304.175 212.227 301.746 204.274 299.397 196.589C292.586 174.311 286.439 154.293 266.03 132.411C261.333 127.39 257.397 123.139 253.81 119.268C232.664 96.4311 223.537 86.5676 198.261 67.3749C201.306 73.0841 205.112 80.332 206.036 85.0208L206.845 89.2886L203.93 86.0493C168.296 46.7408 152.827 41.0802 139.076 36.035C131.949 33.4598 125.292 30.998 116.561 24.3008C116.153 30.9672 118.112 37.5636 122.093 42.9266C122.903 44.0684 123.364 44.6758 121.979 45.356C121.283 45.6719 120.829 45.356 119.833 44.6029C117.857 43.1857 112.463 39.2986 100.607 32.6743L107.896 50.4903L109.759 55.0576L105.993 51.875C100.874 47.5506 97.2137 44.2628 94.2658 41.6147C84.0939 32.48 82.4741 31.0223 65.7018 26.9408L70.812 48.5467L72.8286 57.0255L68.5687 49.3808L66.3254 45.3317C58.1052 30.6174 56.113 27.0218 42.7907 15.0122ZM66.3902 40.57L62.843 25.5398L62.3894 23.6206L64.3088 24.0822C83.4946 28.6657 84.9037 29.929 95.845 39.7683C98.0398 41.7362 100.607 44.0441 103.717 46.7408L97.0436 30.3987L95.7559 27.2323L98.7524 28.852C107.985 33.9052 113.848 37.5737 117.379 39.9384C114.571 34.3328 113.505 28.0151 114.318 21.7985L114.577 19.612L116.286 20.9968C125.6 28.52 132.483 31.0628 139.942 33.7838C153.451 38.7398 168.563 44.3114 201.946 80.3077C200.326 76.3315 197.832 71.7236 195.799 67.9175C194.989 66.3789 194.228 64.9779 193.58 63.7065L191.231 59.0824L195.386 62.184C224.274 83.7656 233.182 93.451 255.607 117.64C259.341 121.689 263.455 126.111 267.812 130.775C288.634 153.062 294.829 173.339 301.729 195.909C303.349 201.278 305.058 206.785 306.985 212.486C306.451 200.614 305.236 191.876 302.434 183.065C299.049 172.424 293.323 161.573 283.677 144.907L281.871 141.781L285.208 143.182C291.363 145.92 297.024 149.655 301.964 154.236C307.192 159.024 312.019 164.232 316.396 169.809C323.904 179.162 327.645 187.203 331.128 194.702C333.259 199.604 335.761 204.336 338.611 208.858C342.579 214.875 347.309 219.094 351.965 223.256C357.74 228.415 363.417 233.484 367.62 241.769C372.884 252.159 373.152 262.686 373.386 271.829C373.459 274.672 373.532 277.376 373.751 279.879C379.744 280.543 384.457 280.13 387.689 278.794C389.476 278.176 390.969 276.914 391.876 275.255C392.643 273.488 392.721 271.497 392.094 269.675C391.058 266.007 388.102 261.52 382.983 256.426L377.533 250.985L384.392 254.483C398.006 261.423 406.591 266.954 407.352 273.311C408.113 279.668 401.011 286.374 383.251 295.379L368.179 308.166C368.228 309.397 368.406 312.693 368.568 315.543C368.705 318.175 368.835 320.442 368.811 320.604C368.074 327.553 368.576 328.605 368.738 328.937C368.839 329.096 368.903 329.275 368.924 329.462C368.945 329.649 368.923 329.838 368.859 330.015V330.015C368.762 330.291 368.604 330.543 368.398 330.751C367.92 331.31 366.559 332.906 363.166 338.671L361.635 341.279L360.939 338.331C358.169 326.5 357.813 319.616 357.351 310.417C352.348 312.762 347.21 314.806 341.964 316.539C338.416 317.778 334.91 318.969 330.982 320.71L328.504 321.787L329.313 319.22L332.334 310.02V309.899L332.399 309.785C333.209 308.425 333.792 307.356 334.294 306.457C335.493 304.279 336.238 302.934 337.364 301.873C301.94 309.583 268.792 315.729 239.046 296.286L236.511 294.666L239.491 294.115C243.669 293.354 247.912 293.009 252.157 293.087C253.866 293.087 255.518 293.087 257.292 292.941C249.074 292.865 240.878 292.085 232.794 290.609C215.568 287.588 198.164 281.984 186.469 276.032C171.981 268.639 167.243 262.468 163.194 257.188C160.667 253.9 158.423 250.976 154.123 248.369C149.327 245.571 144.364 243.069 139.262 240.878C130.993 237.129 122.822 233.42 114.456 226.058L106.843 219.272L115.889 224.058C122.967 227.8 146.138 231.517 169.851 233.193C188.955 234.545 208.352 234.57 219.892 232.205C208.287 224.973 194.989 225.686 178.589 226.536C160.416 227.516 138.493 228.698 110.714 219.685C106.693 218.371 102.753 216.822 98.9144 215.045C95.0548 213.269 91.3015 211.271 87.6735 209.06C83.9886 206.801 77.866 200.962 71.298 194.095C61.1098 183.47 49.7312 170.294 44.8963 164.48L41.5839 160.496L46.3217 162.601L70.974 173.558C75.3544 175.722 79.9357 177.452 84.6527 178.725C86.8123 179.28 88.9992 179.723 91.2045 180.053C85.8675 177.113 80.4333 174.514 75.0072 171.914C53.8858 161.775 32.8293 151.669 17.0126 122.515L14.8259 118.466L18.7214 120.896L34.5705 130.816C31.0881 127.658 27.7757 124.418 24.6091 121.001C17.4492 113.302 11.249 104.764 6.14417 95.5727L4.23289 92.1553L7.74771 93.8964L25.0465 102.472H25.1032L25.2003 102.537C26.8768 103.703 28.3426 104.821 29.7113 105.898C22.4002 97.2211 15.8944 87.8967 10.2745 78.0402C3.86035 66.5651 -0.253774 55.2601 1.66561 47.9393L2.14343 46.1254L3.60119 47.2996L31.7522 70.0797L10.971 39.6954L10.3474 38.7965L11.1572 38.092C12.488 36.9505 14.0246 36.0737 15.6844 35.5087C17.539 34.8203 17.6686 34.7717 14.8259 21.2478L14.3157 18.8184L16.551 19.9197L23.4267 23.2966C24.1234 23.4466 24.7873 23.7209 25.3866 24.1065C24.8602 22.2115 23.8722 19.0289 22.301 13.9676C21.4507 11.2304 20.414 7.89394 19.0615 3.43995L18.3246 1.0105L20.6651 1.94179C21.7071 2.36654 22.7724 2.73155 23.856 3.03504V3.03504C24.3084 3.13523 24.7409 3.31041 25.1356 3.55332C25.6643 3.94358 26.1551 4.38283 26.6014 4.86522C27.2493 5.48878 28.2211 6.44436 29.7923 7.89394L29.8733 7.97492L29.9462 8.064C35.3237 15.3118 39.0653 20.9482 41.6082 25.0701C40.8403 20.8216 40.3722 16.5244 40.2072 12.2103L40.0857 9.34351L42.2237 11.2547C56.5746 24.0498 59.231 27.8154 66.3902 40.5862V40.57Z" stroke="url(#paint0_linear_173_2)" stroke-width="0.75" stroke-miterlimit="10"/>
<path fill-rule="evenodd" clip-rule="evenodd" d="M51.9097 56.6528C51.9097 56.6528 148.381 158.179 206.076 194.451C263.771 230.723 437.22 337.076 437.22 337.076L445.489 334.015C445.489 334.015 247.339 212.68 207.388 189.22C167.437 165.759 51.9097 56.6528 51.9097 56.6528Z" stroke="url(#paint1_linear_173_2)" stroke-width="0.75" stroke-miterlimit="10"/>
<path d="M186.599 109.817C193.77 106.945 201.758 106.867 208.984 109.599C210.791 110.232 212.531 111.046 214.175 112.028C215.828 113.014 217.387 114.15 218.832 115.421C220.271 116.71 221.601 118.115 222.808 119.624L224.484 121.989L225.95 124.499L227.165 127.131L228.129 129.877C228.674 131.73 229.062 133.626 229.287 135.545C229.499 137.479 229.529 139.429 229.376 141.368C229.245 143.313 228.917 145.239 228.396 147.118C226.418 154.79 221.628 161.438 214.977 165.743L213.916 163.638C217.756 162.115 221.234 159.803 224.125 156.851C227.015 153.899 229.254 150.374 230.696 146.502L231.174 145.125L231.579 143.562C231.866 142.571 232.075 141.558 232.202 140.534C232.527 138.529 232.625 136.495 232.494 134.468C232.374 132.435 232.063 130.418 231.563 128.443C231.035 126.47 230.324 124.551 229.441 122.71C228.507 120.898 227.423 119.167 226.201 117.535C224.946 115.911 223.524 114.424 221.958 113.097C220.399 111.753 218.692 110.591 216.872 109.631C215.975 109.117 215.037 108.675 214.069 108.311C213.114 107.893 212.135 107.53 211.138 107.226C207.143 106 202.936 105.625 198.787 106.125C194.559 106.605 190.472 107.932 186.769 110.028L186.599 109.817ZM186.599 109.817C190.175 107.275 194.258 105.534 198.569 104.716C202.953 103.918 207.456 104.05 211.786 105.104C212.864 105.357 213.923 105.69 214.952 106.1C216.011 106.462 217.04 106.906 218.03 107.428C220.048 108.404 221.95 109.605 223.699 111.008C225.479 112.402 227.107 113.979 228.558 115.713C229.303 116.523 229.902 117.511 230.583 118.418C231.263 119.325 231.725 120.369 232.291 121.341C233.295 123.37 234.108 125.487 234.721 127.666C235.894 132.064 236.096 136.665 235.312 141.149C235.153 142.247 234.906 143.33 234.575 144.388L234.13 145.943L233.514 147.563C231.84 151.741 229.313 155.524 226.094 158.671C222.876 161.818 219.037 164.26 214.823 165.841L204.003 169.89L213.746 163.808C216.842 161.87 219.557 159.381 221.755 156.463C223.991 153.546 225.641 150.224 226.614 146.68C227.143 144.923 227.487 143.115 227.643 141.287C227.813 139.458 227.813 137.617 227.643 135.788C227.467 133.958 227.137 132.145 226.655 130.371L225.788 127.747L224.695 125.204L223.359 122.775L221.812 120.475C220.695 118.995 219.454 117.613 218.103 116.345C216.743 115.081 215.268 113.948 213.697 112.96C212.13 111.947 210.464 111.098 208.724 110.425C201.704 107.573 193.869 107.461 186.769 110.109L185.7 110.506L186.599 109.817Z" stroke="url(#paint2_linear_173_2)" stroke-width="0.75" stroke-miterlimit="10"/>
<path fill-rule="evenodd" clip-rule="evenodd" d="M172.402 96.2206L168.239 94.188L171.568 97.4029L169.899 102.116L173.754 98.9335L179.593 102.132L174.588 97.743L176.257 93.0299L172.402 96.2206Z" stroke="url(#paint3_linear_173_2)" stroke-width="0.75" stroke-miterlimit="10"/>
<path fill-rule="evenodd" clip-rule="evenodd" d="M179.755 133.804L176.953 132.436L179.196 134.598L178.071 137.764L180.662 135.626L184.59 137.772L181.221 134.825L182.347 131.658L179.755 133.804Z" stroke="url(#paint4_linear_173_2)" stroke-width="0.75" stroke-miterlimit="10"/>
<path fill-rule="evenodd" clip-rule="evenodd" d="M89.8358 121.479L87.0417 120.11L89.277 122.272L88.1594 125.439L90.7509 123.301L94.6707 125.447L91.3097 122.499L92.4274 119.333L89.8358 121.479Z" stroke="url(#paint5_linear_173_2)" stroke-width="0.75" stroke-miterlimit="10"/>
<path fill-rule="evenodd" clip-rule="evenodd" d="M159.752 65.6421L156.949 64.2735L159.193 66.4357L158.067 69.6021L160.659 67.4642L164.587 69.6183L161.217 66.6706L162.343 63.4961L159.752 65.6421Z" stroke="url(#paint6_linear_173_2)" stroke-width="0.75" stroke-miterlimit="10"/>
<path fill-rule="evenodd" clip-rule="evenodd" d="M238.276 186.426L235.474 185.066L237.718 187.228L236.592 190.394L239.183 188.248L243.111 190.402L239.742 187.454L240.868 184.288L238.276 186.426Z" stroke="url(#paint7_linear_173_2)" stroke-width="0.75" stroke-miterlimit="10"/>
<path fill-rule="evenodd" clip-rule="evenodd" d="M135.698 121.819L131.795 119.916L134.921 122.928L133.358 127.35L136.97 124.362L142.453 127.366L137.747 123.252L139.319 118.831L135.698 121.819Z" stroke="url(#paint8_linear_173_2)" stroke-width="0.75" stroke-miterlimit="10"/>
<path fill-rule="evenodd" clip-rule="evenodd" d="M297.85 288.358L293.688 286.333L297.024 289.548L295.348 294.261L299.203 291.079L305.05 294.277L300.037 289.888L301.705 285.175L297.85 288.358Z" stroke="url(#paint9_linear_173_2)" stroke-width="0.75" stroke-miterlimit="10"/>
<path fill-rule="evenodd" clip-rule="evenodd" d="M326.868 283.636L324.065 282.268L326.309 284.43L325.183 287.596L327.775 285.458L331.702 287.613L328.333 284.657L329.459 281.49L326.868 283.636Z" stroke="url(#paint10_linear_173_2)" stroke-width="0.75" stroke-miterlimit="10"/>
<path fill-rule="evenodd" clip-rule="evenodd" d="M269.699 185.284L266.905 183.916L269.14 186.078L268.023 189.244L270.614 187.106L274.534 189.26L271.165 186.313L272.291 183.146L269.699 185.284Z" stroke="url(#paint11_linear_173_2)" stroke-width="0.75" stroke-miterlimit="10"/>
<path fill-rule="evenodd" clip-rule="evenodd" d="M319.903 209.773L317.101 208.404L319.344 210.567L318.218 213.733L320.81 211.595L324.738 213.741L321.369 210.793L322.486 207.627L319.903 209.773Z" stroke="url(#paint12_linear_173_2)" stroke-width="0.75" stroke-miterlimit="10"/>
<path fill-rule="evenodd" clip-rule="evenodd" d="M206.036 260.03L203.241 258.67L205.477 260.832L204.359 263.998L206.951 261.86L210.87 264.006L207.509 261.059L208.627 257.892L206.036 260.03Z" stroke="url(#paint13_linear_173_2)" stroke-width="0.75" stroke-miterlimit="10"/>
<path fill-rule="evenodd" clip-rule="evenodd" d="M152.349 96.6093L148.438 94.7062L151.564 97.7269L150.001 102.148L153.613 99.1602L159.096 102.157L154.398 98.0427L155.961 93.6211L152.349 96.6093Z" stroke="url(#paint14_linear_173_2)" stroke-width="0.75" stroke-miterlimit="10"/>
<path fill-rule="evenodd" clip-rule="evenodd" d="M252.052 145.166L247.889 143.141L251.218 146.356L249.55 151.07L253.405 147.887L259.244 151.086L254.239 146.697L255.907 141.983L252.052 145.166Z" stroke="url(#paint15_linear_173_2)" stroke-width="0.75" stroke-miterlimit="10"/>
<path fill-rule="evenodd" clip-rule="evenodd" d="M289.873 222.528L287.079 221.159L289.322 223.321L288.196 226.488L290.788 224.35L294.708 226.496L291.347 223.548L292.464 220.382L289.873 222.528Z" stroke="url(#paint16_linear_173_2)" stroke-width="0.75" stroke-miterlimit="10"/>
<path fill-rule="evenodd" clip-rule="evenodd" d="M289.598 261.205L286.795 259.844L289.039 262.006L287.913 265.173L290.505 263.035L294.432 265.181L291.063 262.233L292.189 259.067L289.598 261.205Z" stroke="url(#paint17_linear_173_2)" stroke-width="0.75" stroke-miterlimit="10"/>
<path fill-rule="evenodd" clip-rule="evenodd" d="M146.502 168.327L142.331 166.302L145.668 169.517L144 174.23L147.855 171.04L153.694 174.247L148.681 169.857L150.349 165.144L146.502 168.327Z" stroke="url(#paint18_linear_173_2)" stroke-width="0.75" stroke-miterlimit="10"/>
<path fill-rule="evenodd" clip-rule="evenodd" d="M53.5133 78.1454L50.7112 76.7849L52.9545 78.9471L51.8288 82.1135L54.4204 79.9755L58.3401 82.1215L54.9792 79.1738L56.1049 76.0074L53.5133 78.1454Z" stroke="url(#paint19_linear_173_2)" stroke-width="0.75" stroke-miterlimit="10"/>
<path fill-rule="evenodd" clip-rule="evenodd" d="M74.1649 143.878L71.3628 142.518L73.6061 144.68L72.4804 147.846L75.072 145.7L78.9998 147.855L75.6308 144.907L76.7565 141.74L74.1649 143.878Z" stroke="url(#paint20_linear_173_2)" stroke-width="0.75" stroke-miterlimit="10"/>
<path fill-rule="evenodd" clip-rule="evenodd" d="M103.101 149.571L100.299 148.211L102.543 150.373L101.417 153.539L104.009 151.402L107.936 153.548L104.567 150.6L105.693 147.433L103.101 149.571Z" stroke="url(#paint21_linear_173_2)" stroke-width="0.75" stroke-miterlimit="10"/>
<path fill-rule="evenodd" clip-rule="evenodd" d="M153.435 197.294L149.523 195.391L152.657 198.403L151.086 202.825L154.698 199.836L160.181 202.841L155.484 198.727L157.047 194.305L153.435 197.294Z" stroke="url(#paint22_linear_173_2)" stroke-width="0.75" stroke-miterlimit="10"/>
<path fill-rule="evenodd" clip-rule="evenodd" d="M189.579 196.111L186.785 194.743L189.02 196.905L187.903 200.071L190.494 197.934L194.414 200.088L191.053 197.132L192.171 193.965L189.579 196.111Z" stroke="url(#paint23_linear_173_2)" stroke-width="0.75" stroke-miterlimit="10"/>
<path fill-rule="evenodd" clip-rule="evenodd" d="M120.084 180.547L117.29 179.186L119.534 181.349L118.408 184.515L120.999 182.377L124.919 184.523L121.558 181.575L122.676 178.409L120.084 180.547Z" stroke="url(#paint24_linear_173_2)" stroke-width="0.75" stroke-miterlimit="10"/>
<path fill-rule="evenodd" clip-rule="evenodd" d="M333.962 246.215L331.168 244.854L333.403 247.016L332.286 250.183L334.869 248.045L338.797 250.191L335.428 247.243L336.554 244.077L333.962 246.215Z" stroke="url(#paint25_linear_173_2)" stroke-width="0.75" stroke-miterlimit="10"/>
<path fill-rule="evenodd" clip-rule="evenodd" d="M115.144 77.1738L112.35 75.8052L114.593 77.9674L113.468 81.1338L116.059 78.9959L119.979 81.15L116.618 78.2023L117.736 75.0359L115.144 77.1738Z" stroke="url(#paint26_linear_173_2)" stroke-width="0.75" stroke-miterlimit="10"/>
<path fill-rule="evenodd" clip-rule="evenodd" d="M238.422 237.023L234.518 235.12L237.645 238.133L236.081 242.554L239.694 239.566L245.176 242.571L240.471 238.457L242.042 234.035L238.422 237.023Z" stroke="url(#paint27_linear_173_2)" stroke-width="0.75" stroke-miterlimit="10"/>
<path d="M265.869 268.744V262.265L272.072 265.286L266.986 260.702L273.562 258.394L266.387 258.767L269.432 252.548L264.84 257.52L262.67 251.309L262.969 257.714L257.138 254.815L261.892 259.318L255.77 261.65L262.159 261.439L259.236 267.108L263.795 262.419L265.869 268.744ZM262.184 259.577L262.823 260.184L262.338 261.196V261.099L257.883 261.245L262.184 259.577ZM264.613 257.803L264.176 258.281L263.228 257.811H263.366L263.172 253.673L264.613 257.803ZM266.897 260.524L265.974 259.714L266.346 258.945V259.131L271.206 258.848L266.816 260.387L266.897 260.524ZM270.072 263.845L264.565 261.164L260.653 265.213L263.269 260.127L259.098 256.176L264.249 258.743L268.12 254.548L265.545 259.804L270.072 263.845ZM265.577 262.071V266.598L264.152 262.241L264.014 262.29L264.662 261.618L265.577 262.071Z" stroke="url(#paint28_linear_173_2)" stroke-width="0.75" stroke-miterlimit="10"/>
<path d="M68.269 129.877V118.912L78.7244 124.014L70.156 116.288L81.235 112.385L69.087 113.097L74.2215 102.618L66.4873 111.008L62.8267 100.537L63.3369 111.332L53.5132 106.473L61.5147 114.069L51.197 117.989L61.9682 117.64L57.1171 127.172L64.8028 119.268L68.269 129.877ZM62.0654 114.49L63.1345 115.51L62.3003 117.187V117.049L54.7928 117.292L62.0654 114.49ZM66.1148 111.502L65.3616 112.312L63.7419 111.502H63.9767L63.6447 104.521L66.1148 111.502ZM69.9535 116.077L68.3905 114.676L69.0222 113.389V113.697L77.1209 113.219L69.8321 115.794L69.9535 116.077ZM75.2987 121.681L66.0257 117.171L59.4253 123.957L63.8471 115.389L56.8013 108.7L65.5398 113L72.0187 105.938L67.6859 114.79L75.2987 121.681ZM67.7264 118.669V126.289L65.2968 118.96L65.0619 119.041L66.1553 117.908L67.7264 118.669Z" stroke="url(#paint29_linear_173_2)" stroke-width="0.75" stroke-miterlimit="10"/>
<defs>
<linearGradient id="paint0_linear_173_2" x1="189.249" y1="-13.7489" x2="219.659" y2="353.802" gradientUnits="userSpaceOnUse">
<stop offset="0.18" stop-color="#E4C067"/>
<stop offset="0.61" stop-color="#F7E6BA"/>
<stop offset="0.97" stop-color="#C89C46"/>
</linearGradient>
<linearGradient id="paint1_linear_173_2" x1="-740369" y1="-189120" x2="-588861" y2="-189120" gradientUnits="userSpaceOnUse">
<stop offset="0.18" stop-color="#E4C067"/>
<stop offset="0.61" stop-color="#F7E6BA"/>
<stop offset="0.97" stop-color="#C89C46"/>
</linearGradient>
<linearGradient id="paint2_linear_173_2" x1="-90334.3" y1="-41533.3" x2="-86193.7" y2="-41533.3" gradientUnits="userSpaceOnUse">
<stop offset="0.18" stop-color="#E4C067"/>
<stop offset="0.61" stop-color="#F7E6BA"/>
<stop offset="0.97" stop-color="#C89C46"/>
</linearGradient>
<linearGradient id="paint3_linear_173_2" x1="-20549.7" y1="-5301.02" x2="-20381.3" y2="-5301.02" gradientUnits="userSpaceOnUse">
<stop offset="0.18" stop-color="#E4C067"/>
<stop offset="0.61" stop-color="#F7E6BA"/>
<stop offset="0.97" stop-color="#C89C46"/>
</linearGradient>
<linearGradient id="paint4_linear_173_2" x1="-13390.7" y1="-3520.18" x2="-13306" y2="-3520.18" gradientUnits="userSpaceOnUse">
<stop offset="0.18" stop-color="#E4C067"/>
<stop offset="0.61" stop-color="#F7E6BA"/>
<stop offset="0.97" stop-color="#C89C46"/>
</linearGradient>
<linearGradient id="paint5_linear_173_2" x1="-13651.7" y1="-2863.62" x2="-13567.2" y2="-2863.62" gradientUnits="userSpaceOnUse">
<stop offset="0.18" stop-color="#E4C067"/>
<stop offset="0.61" stop-color="#F7E6BA"/>
<stop offset="0.97" stop-color="#C89C46"/>
</linearGradient>
<linearGradient id="paint6_linear_173_2" x1="-14066.8" y1="-3484.93" x2="-13982.2" y2="-3484.93" gradientUnits="userSpaceOnUse">
<stop offset="0.18" stop-color="#E4C067"/>
<stop offset="0.61" stop-color="#F7E6BA"/>
<stop offset="0.97" stop-color="#C89C46"/>
</linearGradient>
<linearGradient id="paint7_linear_173_2" x1="-12792.2" y1="-3875.04" x2="-12707.5" y2="-3875.04" gradientUnits="userSpaceOnUse">
<stop offset="0.18" stop-color="#E4C067"/>
<stop offset="0.61" stop-color="#F7E6BA"/>
<stop offset="0.97" stop-color="#C89C46"/>
</linearGradient>
<linearGradient id="paint8_linear_173_2" x1="-19017" y1="-4530.69" x2="-18866.6" y2="-4530.69" gradientUnits="userSpaceOnUse">
<stop offset="0.18" stop-color="#E4C067"/>
<stop offset="0.61" stop-color="#F7E6BA"/>
<stop offset="0.97" stop-color="#C89C46"/>
</linearGradient>
<linearGradient id="paint9_linear_173_2" x1="-17607.3" y1="-6336.15" x2="-17438.8" y2="-6336.15" gradientUnits="userSpaceOnUse">
<stop offset="0.18" stop-color="#E4C067"/>
<stop offset="0.61" stop-color="#F7E6BA"/>
<stop offset="0.97" stop-color="#C89C46"/>
</linearGradient>
<linearGradient id="paint10_linear_173_2" x1="-11721.1" y1="-4390.13" x2="-11636.5" y2="-4390.13" gradientUnits="userSpaceOnUse">
<stop offset="0.18" stop-color="#E4C067"/>
<stop offset="0.61" stop-color="#F7E6BA"/>
<stop offset="0.97" stop-color="#C89C46"/>
</linearGradient>
<linearGradient id="paint11_linear_173_2" x1="-12733.2" y1="-4113.38" x2="-12648.6" y2="-4113.38" gradientUnits="userSpaceOnUse">
<stop offset="0.18" stop-color="#E4C067"/>
<stop offset="0.61" stop-color="#F7E6BA"/>
<stop offset="0.97" stop-color="#C89C46"/>
</linearGradient>
<linearGradient id="paint12_linear_173_2" x1="-12427.7" y1="-4451.39" x2="-12343" y2="-4451.39" gradientUnits="userSpaceOnUse">
<stop offset="0.18" stop-color="#E4C067"/>
<stop offset="0.61" stop-color="#F7E6BA"/>
<stop offset="0.97" stop-color="#C89C46"/>
</linearGradient>
<linearGradient id="paint13_linear_173_2" x1="-12144.5" y1="-3513.15" x2="-12060" y2="-3513.15" gradientUnits="userSpaceOnUse">
<stop offset="0.18" stop-color="#E4C067"/>
<stop offset="0.61" stop-color="#F7E6BA"/>
<stop offset="0.97" stop-color="#C89C46"/>
</linearGradient>
<linearGradient id="paint14_linear_173_2" x1="-19312.9" y1="-4752.56" x2="-19162.5" y2="-4752.56" gradientUnits="userSpaceOnUse">
<stop offset="0.18" stop-color="#E4C067"/>
<stop offset="0.61" stop-color="#F7E6BA"/>
<stop offset="0.97" stop-color="#C89C46"/>
</linearGradient>
<linearGradient id="paint15_linear_173_2" x1="-19693.9" y1="-6098.83" x2="-19525.7" y2="-6098.83" gradientUnits="userSpaceOnUse">
<stop offset="0.18" stop-color="#E4C067"/>
<stop offset="0.61" stop-color="#F7E6BA"/>
<stop offset="0.97" stop-color="#C89C46"/>
</linearGradient>
<linearGradient id="paint16_linear_173_2" x1="-12347.7" y1="-4204.79" x2="-12263.2" y2="-4204.79" gradientUnits="userSpaceOnUse">
<stop offset="0.18" stop-color="#E4C067"/>
<stop offset="0.61" stop-color="#F7E6BA"/>
<stop offset="0.97" stop-color="#C89C46"/>
</linearGradient>
<linearGradient id="paint17_linear_173_2" x1="-11998.1" y1="-4139.92" x2="-11913.4" y2="-4139.92" gradientUnits="userSpaceOnUse">
<stop offset="0.18" stop-color="#E4C067"/>
<stop offset="0.61" stop-color="#F7E6BA"/>
<stop offset="0.97" stop-color="#C89C46"/>
</linearGradient>
<linearGradient id="paint18_linear_173_2" x1="-19611.9" y1="-4871.93" x2="-19443.5" y2="-4871.93" gradientUnits="userSpaceOnUse">
<stop offset="0.18" stop-color="#E4C067"/>
<stop offset="0.61" stop-color="#F7E6BA"/>
<stop offset="0.97" stop-color="#C89C46"/>
</linearGradient>
<linearGradient id="paint19_linear_173_2" x1="-14123" y1="-2660.54" x2="-14038.4" y2="-2660.54" gradientUnits="userSpaceOnUse">
<stop offset="0.18" stop-color="#E4C067"/>
<stop offset="0.61" stop-color="#F7E6BA"/>
<stop offset="0.97" stop-color="#C89C46"/>
</linearGradient>
<linearGradient id="paint20_linear_173_2" x1="-13483.6" y1="-2709.33" x2="-13398.9" y2="-2709.33" gradientUnits="userSpaceOnUse">
<stop offset="0.18" stop-color="#E4C067"/>
<stop offset="0.61" stop-color="#F7E6BA"/>
<stop offset="0.97" stop-color="#C89C46"/>
</linearGradient>
<linearGradient id="paint21_linear_173_2" x1="-13378.6" y1="-2917.82" x2="-13294" y2="-2917.82" gradientUnits="userSpaceOnUse">
<stop offset="0.18" stop-color="#E4C067"/>
<stop offset="0.61" stop-color="#F7E6BA"/>
<stop offset="0.97" stop-color="#C89C46"/>
</linearGradient>
<linearGradient id="paint22_linear_173_2" x1="-17990" y1="-4575.91" x2="-17839.6" y2="-4575.91" gradientUnits="userSpaceOnUse">
<stop offset="0.18" stop-color="#E4C067"/>
<stop offset="0.61" stop-color="#F7E6BA"/>
<stop offset="0.97" stop-color="#C89C46"/>
</linearGradient>
<linearGradient id="paint23_linear_173_2" x1="-12773.9" y1="-3497.91" x2="-12689.2" y2="-3497.91" gradientUnits="userSpaceOnUse">
<stop offset="0.18" stop-color="#E4C067"/>
<stop offset="0.61" stop-color="#F7E6BA"/>
<stop offset="0.97" stop-color="#C89C46"/>
</linearGradient>
<linearGradient id="paint24_linear_173_2" x1="-13043.4" y1="-2995.44" x2="-12958.8" y2="-2995.44" gradientUnits="userSpaceOnUse">
<stop offset="0.18" stop-color="#E4C067"/>
<stop offset="0.61" stop-color="#F7E6BA"/>
<stop offset="0.97" stop-color="#C89C46"/>
</linearGradient>
<linearGradient id="paint25_linear_173_2" x1="-12047" y1="-4498.03" x2="-11962.4" y2="-4498.03" gradientUnits="userSpaceOnUse">
<stop offset="0.18" stop-color="#E4C067"/>
<stop offset="0.61" stop-color="#F7E6BA"/>
<stop offset="0.97" stop-color="#C89C46"/>
</linearGradient>
<linearGradient id="paint26_linear_173_2" x1="-14022.7" y1="-3125.88" x2="-13938.1" y2="-3125.88" gradientUnits="userSpaceOnUse">
<stop offset="0.18" stop-color="#E4C067"/>
<stop offset="0.61" stop-color="#F7E6BA"/>
<stop offset="0.97" stop-color="#C89C46"/>
</linearGradient>
<linearGradient id="paint27_linear_173_2" x1="-17291.8" y1="-5394.43" x2="-17141.4" y2="-5394.43" gradientUnits="userSpaceOnUse">
<stop offset="0.18" stop-color="#E4C067"/>
<stop offset="0.61" stop-color="#F7E6BA"/>
<stop offset="0.97" stop-color="#C89C46"/>
</linearGradient>
<linearGradient id="paint28_linear_173_2" x1="-28614.1" y1="-11737.7" x2="-28139.4" y2="-11737.7" gradientUnits="userSpaceOnUse">
<stop offset="0.18" stop-color="#E4C067"/>
<stop offset="0.61" stop-color="#F7E6BA"/>
<stop offset="0.97" stop-color="#C89C46"/>
</linearGradient>
<linearGradient id="paint29_linear_173_2" x1="-54872" y1="-13342.9" x2="-53623" y2="-13342.9" gradientUnits="userSpaceOnUse">
<stop offset="0.18" stop-color="#E4C067"/>
<stop offset="0.61" stop-color="#F7E6BA"/>
<stop offset="0.97" stop-color="#C89C46"/>
</linearGradient>
</defs>
</svg>
